<svg width="559" height="334" viewBox="0 0 559 334" fill="none" xmlns="http://www.w3.org/2000/svg">
<rect width="559" height="334" rx="10" fill="url(#paint0_linear_291_1056)"/>
<mask id="mask0_291_1056" style="mask-type:alpha" maskUnits="userSpaceOnUse" x="0" y="0" width="559" height="334">
<rect width="559" height="334" rx="10" fill="#D9D9D9" fill-opacity="0.69"/>
</mask>
<g mask="url(#mask0_291_1056)">
<g clip-path="url(#clip0_291_1056)">
<path d="M279.042 -54.5219V-55.2975H186.722V-73.4373H185.946V-55.2975H178.125V-73.4373H177.35V-28.3362C175.814 -28.1448 174.619 -26.8314 174.619 -25.2439C174.619 -23.5246 176.018 -22.1258 177.738 -22.1258C179.457 -22.1258 180.856 -23.5246 180.856 -25.2439C180.856 -26.8314 179.661 -28.1448 178.125 -28.3362V-39.3503H185.946V-18.5837C184.411 -18.3924 183.216 -17.079 183.216 -15.4915C183.216 -13.904 184.411 -12.5906 185.946 -12.3993V27.6291H178.125V-22.1207H177.35V27.6291H169.529V-22.1207H168.753V27.6291H161.581V-12.3993C163.117 -12.5906 164.311 -13.904 164.311 -15.4915C164.311 -17.2109 162.912 -18.6096 161.193 -18.6096C159.474 -18.6096 158.075 -17.2109 158.075 -15.4915C158.075 -13.904 159.269 -12.5906 160.805 -12.3993V52.6048H129.5V-73.4373H128.725V11.4905H120.904V-73.4373H120.128V2.89124H112.307V-73.4373H111.531V-5.70548H103.511V-58.3484C105.047 -58.5397 106.241 -59.8532 106.241 -61.4406C106.241 -63.16 104.843 -64.5587 103.123 -64.5587C101.404 -64.5587 100.005 -63.16 100.005 -61.4406C100.005 -59.8532 101.2 -58.5397 102.735 -58.3484V-5.70807H62.6708V-36.6485C64.2066 -36.8398 65.4011 -38.1532 65.4011 -39.7407C65.4011 -41.3282 64.2066 -42.6416 62.6708 -42.8329V-73.4373H61.8952V-42.8304C60.4861 -42.6546 59.3691 -41.535 59.1907 -40.126H54.0715V-44.7721C55.6073 -44.9634 56.8018 -46.2768 56.8018 -47.8643C56.8018 -49.4518 55.6073 -50.7652 54.0715 -50.9565V-73.4373H53.2959V-50.9565C51.8868 -50.7807 50.7698 -49.6612 50.5914 -48.2521H45.4722V-51.8227C46.9925 -52.0295 48.1663 -53.3326 48.1663 -54.9097C48.1663 -56.4869 47.0106 -57.8106 45.4722 -58.0019V-73.4373H44.6966V-57.9994C43.2875 -57.8236 42.1318 -56.704 41.9559 -55.295H-0.189941V-54.5193H41.9585C42.1369 -53.0973 43.272 -51.9726 44.6966 -51.8097V-48.2495H-0.189941V-47.4739H44.6991V-40.1234H-0.189941V-39.3477H44.6991V-5.70289H22.1072C21.9159 -7.23866 20.6051 -8.43316 19.015 -8.43316C17.4249 -8.43316 16.1167 -7.23866 15.9228 -5.70289H-0.189941V-4.92725H15.9253C16.1167 -3.39147 17.4275 -2.19698 19.0176 -2.19698C20.6076 -2.19698 21.9159 -3.39147 22.1098 -4.92725H44.7017V2.89641H33.3049C33.1136 1.36063 31.8028 0.166142 30.2127 0.166142C28.6226 0.166142 27.3144 1.36063 27.1205 2.89641H-0.189941V3.67205H27.1179C27.3092 5.20782 28.62 6.40231 30.2101 6.40231C31.8002 6.40231 33.1084 5.20782 33.3023 3.67205H44.6991V92.4936H33.1653V52.61H-0.189941V53.3856H32.3897V93.2692H44.6991V101.093H24.3954V61.2067H-0.189941V61.9824H23.6197V101.869H44.6991V109.692H16.1658V69.806H-0.189941V70.5817H15.3902V110.468H44.6991V168.871H31.3296C31.1383 167.335 29.8249 166.141 28.2374 166.141C26.6499 166.141 25.3391 167.335 25.1452 168.871H-0.189941V169.647H25.1452C25.3365 171.183 26.6499 172.377 28.2374 172.377C29.8249 172.377 31.1357 171.183 31.3296 169.647H44.6991V177.383H20.3051C20.1138 175.847 18.803 174.652 17.2129 174.652C15.6228 174.652 14.3146 175.847 14.1207 177.383H-0.189941V178.158H14.1233C14.3146 179.694 15.6254 180.888 17.2155 180.888C18.8056 180.888 20.1138 179.694 20.3077 178.158H44.7017V185.894H-0.189941V186.67H44.6991V205.805H45.4748V186.67H53.2959V205.805H54.0715V186.67H61.8926V205.805H62.6682V186.67H87.4319V193.462C85.8962 193.653 84.7017 194.966 84.7017 196.554C84.7017 198.273 86.1004 199.672 87.8198 199.672C89.5391 199.672 90.9378 198.273 90.9378 196.554C90.9378 194.966 89.7433 193.653 88.2076 193.462V185.894H62.6682V178.158H111.529V205.805H112.304V178.158H120.125V205.805H120.901V127.666H128.722V205.805H129.498V127.666H160.803V149.85C159.267 150.041 158.072 151.355 158.072 152.942C158.072 154.661 159.471 156.06 161.19 156.06C162.91 156.06 164.309 154.661 164.309 152.942C164.309 151.355 163.114 150.041 161.578 149.85V127.666H168.75V137.822C167.215 138.014 166.02 139.327 166.02 140.914C166.02 142.634 167.419 144.033 169.138 144.033C170.858 144.033 172.256 142.634 172.256 140.914C172.256 139.327 171.062 138.014 169.526 137.822V127.666H195.8V168.871H177.35V205.805H178.125V169.647H196.575V127.666H204.396V177.383H185.946V205.805H186.722V178.158H205.172V127.666H234.176V183.19C232.64 183.381 231.446 184.694 231.446 186.282C231.446 188.001 232.844 189.4 234.564 189.4C236.151 189.4 237.462 188.205 237.656 186.67H279.044V185.894H237.656C237.48 184.485 236.361 183.365 234.952 183.19V127.666H242.773V174.678C241.237 174.87 240.042 176.183 240.042 177.77C240.042 179.49 241.441 180.888 243.16 180.888C244.748 180.888 246.059 179.694 246.253 178.158H279.042V177.383H246.253C246.077 175.974 244.957 174.854 243.548 174.678V127.666H251.369V166.169C249.834 166.361 248.639 167.674 248.639 169.262C248.639 170.981 250.038 172.38 251.757 172.38C253.345 172.38 254.656 171.185 254.849 169.649H279.042V168.874H254.849C254.674 167.465 253.554 166.345 252.145 166.169V70.5842H279.042V69.8086H252.145V61.9849H279.042V61.2093H252.145V53.3856H279.042V52.61H186.722V45.6085H231.453C231.453 45.6525 231.446 45.6938 231.446 45.7378C231.446 47.4571 232.844 48.8559 234.564 48.8559C236.283 48.8559 237.682 47.4571 237.682 45.7378C237.682 44.0184 236.283 42.6197 234.564 42.6197C233.16 42.6197 231.971 43.5531 231.58 44.8329H186.722V37.0092H248.745C248.936 38.545 250.25 39.7395 251.837 39.7395C253.557 39.7395 254.955 38.3407 254.955 36.6214C254.955 34.902 253.557 33.5033 251.837 33.5033C250.25 33.5033 248.939 34.6978 248.745 36.2336H186.722V28.4099H240.071C240.262 29.9457 241.576 31.1402 243.163 31.1402C244.882 31.1402 246.281 29.7414 246.281 28.0221C246.281 26.3027 244.882 24.904 243.163 24.904C241.576 24.904 240.265 26.0985 240.071 27.6343H186.722V-12.3941C188.258 -12.5854 189.452 -13.8989 189.452 -15.4863C189.452 -17.0738 188.258 -18.3873 186.722 -18.5786V-39.3451H212.598V3.67464H279.042V2.89899H213.373V-39.3451H222.055V-4.92467H279.042V-5.70031H222.831V-39.3451H279.042V-40.1208H222.831V-47.4713H279.042V-48.2469H222.831V-54.5167H279.042V-54.5219ZM180.077 -25.2439C180.077 -23.9512 179.028 -22.9015 177.735 -22.9015C176.442 -22.9015 175.393 -23.9512 175.393 -25.2439C175.393 -26.5367 176.442 -27.5864 177.735 -27.5864C179.028 -27.5864 180.077 -26.5367 180.077 -25.2439ZM19.0176 -2.97521C17.7248 -2.97521 16.6751 -4.02492 16.6751 -5.31766C16.6751 -6.61039 17.7248 -7.6601 19.0176 -7.6601C20.3103 -7.6601 21.36 -6.61039 21.36 -5.31766C21.36 -4.02492 20.3103 -2.97521 19.0176 -2.97521ZM30.2101 5.6215C28.9174 5.6215 27.8677 4.5718 27.8677 3.27906C27.8677 1.98632 28.9174 0.936617 30.2101 0.936617C31.5029 0.936617 32.5526 1.98632 32.5526 3.27906C32.5526 4.5718 31.5029 5.6215 30.2101 5.6215ZM28.2374 171.596C26.9447 171.596 25.895 170.547 25.895 169.254C25.895 167.961 26.9447 166.911 28.2374 166.911C29.5301 166.911 30.5798 167.961 30.5798 169.254C30.5798 170.547 29.5301 171.596 28.2374 171.596ZM17.2129 180.108C15.9202 180.108 14.8705 179.058 14.8705 177.765C14.8705 176.473 15.9202 175.423 17.2129 175.423C18.5057 175.423 19.5554 176.473 19.5554 177.765C19.5554 179.058 18.5057 180.108 17.2129 180.108ZM90.1622 196.546C90.1622 197.839 89.1125 198.889 87.8198 198.889C86.527 198.889 85.4773 197.839 85.4773 196.546C85.4773 195.253 86.527 194.204 87.8198 194.204C89.1125 194.204 90.1622 195.253 90.1622 196.546ZM168.75 28.4022V44.8251H161.578V28.4022H168.75ZM161.581 61.2015V53.3779H168.753V61.2015H161.581ZM168.75 61.9772V69.8008H161.578V61.9772H168.75ZM161.581 52.6022V45.6008H168.753V52.6022H161.581ZM129.498 53.3779H160.803V61.2015H129.498V53.3779ZM129.498 61.9772H160.803V69.8008H129.498V61.9772ZM120.901 12.2662H128.722V52.5996H120.901V12.2662ZM120.901 53.3779H128.722V61.2015H120.901V53.3779ZM120.901 61.9772H128.722V69.8008H120.901V61.9772ZM112.304 3.66688H120.125V11.4905H112.304V3.66688ZM112.304 12.2662H120.125V52.5996H112.304V12.2662ZM120.125 53.3779V61.2015H103.508V53.3779H120.125ZM111.529 12.2662V52.5996H103.508V12.2662H111.529ZM103.508 11.4905V3.66688H111.529V11.4905H103.508ZM111.529 -4.92983V2.89383H103.508V-4.92983H111.529ZM100.778 -61.4381C100.778 -62.7308 101.828 -63.7805 103.121 -63.7805C104.413 -63.7805 105.463 -62.7308 105.463 -61.4381C105.463 -60.1453 104.413 -59.0956 103.121 -59.0956C101.828 -59.0956 100.778 -60.1453 100.778 -61.4381ZM102.733 -4.92983V2.89383H62.6682V-4.92983H102.733ZM102.733 3.66688V11.4905H62.6682V3.66688H102.733ZM45.0508 -52.5673C43.758 -52.5673 42.7083 -53.617 42.7083 -54.9097C42.7083 -56.2025 43.758 -57.2522 45.0508 -57.2522C46.3435 -57.2522 47.3932 -56.2025 47.3932 -54.9097C47.3932 -53.617 46.3435 -52.5673 45.0508 -52.5673ZM53.2959 185.886H45.4748V178.15H53.2959V185.886ZM53.2959 177.377H45.4748V169.642H53.2959V177.377ZM53.2959 168.866H45.4748V110.463H53.2959V168.866ZM53.2959 109.687H45.4748V101.863H53.2959V109.687ZM53.2959 101.088H45.4748V93.2641H53.2959V101.088ZM53.2959 92.4884H45.4748V3.66688H53.2959V92.4884ZM53.2959 2.89124H45.4748V-4.93242H53.2959V2.89124ZM53.2959 -5.70548H45.4748V-39.3503H53.2959V-5.70548ZM53.2959 -40.126H45.4748V-47.4765H50.594C50.7698 -46.0674 51.8894 -44.9479 53.2984 -44.7721V-40.126H53.2959ZM53.6837 -45.5218C52.3909 -45.5218 51.3412 -46.5715 51.3412 -47.8643C51.3412 -49.157 52.3909 -50.2067 53.6837 -50.2067C54.9764 -50.2067 56.0261 -49.157 56.0261 -47.8643C56.0261 -46.5715 54.9764 -45.5218 53.6837 -45.5218ZM61.8926 185.886H54.0715V178.15H61.8926V185.886ZM61.8926 177.377H54.0715V169.642H61.8926V177.377ZM61.8926 168.866H54.0715V110.463H61.8926V168.866ZM61.8926 109.687H54.0715V101.863H61.8926V109.687ZM61.8926 101.088H54.0715V93.2641H61.8926V101.088ZM61.8926 92.4884H54.0715V12.2662H61.8926V92.4884ZM61.8926 11.4905H54.0715V3.66688H61.8926V11.4905ZM61.8926 2.89124H54.0715V-4.93242H61.8926V2.89124ZM61.8926 -5.70548H54.0715V-39.3503H59.1907C59.3666 -37.9412 60.4861 -36.8217 61.8952 -36.6459V-5.70548H61.8926ZM62.2804 -37.3957C60.9877 -37.3957 59.938 -38.4454 59.938 -39.7381C59.938 -41.0309 60.9877 -42.0806 62.2804 -42.0806C63.5731 -42.0806 64.6228 -41.0309 64.6228 -39.7381C64.6228 -38.4454 63.5731 -37.3957 62.2804 -37.3957ZM78.1139 109.687H62.6682V101.863H78.1139V109.687ZM78.5017 155.044C79.7944 155.044 80.8441 156.094 80.8441 157.387C80.8441 158.679 79.7944 159.729 78.5017 159.729C77.2089 159.729 76.1592 158.679 76.1592 157.387C76.1592 156.094 77.2089 155.044 78.5017 155.044ZM111.529 177.377H62.6682V169.642H111.529V177.377ZM120.125 177.377H112.304V169.642H120.125V177.377ZM120.901 126.886H120.125V168.866H62.6682V110.463H69.5146V144.022C67.9788 144.213 66.7843 145.527 66.7843 147.114C66.7843 148.834 68.183 150.232 69.9024 150.232C71.6217 150.232 73.0205 148.834 73.0205 147.114C73.0205 145.527 71.826 144.213 70.2902 144.022V110.463H78.1113V154.294C76.5755 154.486 75.381 155.799 75.381 157.387C75.381 159.106 76.7798 160.505 78.4991 160.505C80.2184 160.505 81.6172 159.106 81.6172 157.387C81.6172 155.799 80.4227 154.486 78.8869 154.294V110.463H134.237C134.428 111.998 135.739 113.193 137.329 113.193C139.048 113.193 140.447 111.794 140.447 110.075C140.447 108.355 139.048 106.957 137.329 106.957C135.742 106.957 134.431 108.151 134.237 109.687H78.8869V101.863H124.011C124.203 103.399 125.516 104.594 127.104 104.594C128.823 104.594 130.222 103.195 130.222 101.476C130.222 99.7562 128.823 98.3574 127.104 98.3574C125.516 98.3574 124.205 99.5519 124.011 101.088H62.6656V93.2641H114.595C114.786 94.7998 116.097 95.9943 117.687 95.9943C119.407 95.9943 120.805 94.5956 120.805 92.8762C120.805 91.1569 119.407 89.7581 117.687 89.7581C116.1 89.7581 114.789 90.9526 114.595 92.4884H62.6656V12.2662H102.73V52.5996H73.9176C73.7237 51.0639 72.4129 49.8746 70.828 49.8746C69.1086 49.8746 67.7099 51.2733 67.7099 52.9926C67.7099 54.712 69.1086 56.1107 70.828 56.1107C72.4181 56.1107 73.7289 54.9137 73.9202 53.3753H102.733V61.1989H81.3173C81.1234 59.6632 79.8125 58.4713 78.2276 58.4713C76.5083 58.4713 75.1095 59.87 75.1095 61.5894C75.1095 63.3087 76.5083 64.7074 78.2276 64.7074C79.8177 64.7074 81.1285 63.5104 81.3199 61.972H120.128V69.7957H90.9146C90.7232 68.2599 89.4124 67.0654 87.8223 67.0654C86.103 67.0654 84.7043 68.4641 84.7043 70.1835C84.7043 71.9028 86.103 73.3016 87.8223 73.3016C89.4098 73.3016 90.7207 72.1071 90.9146 70.5713H160.808V126.88H120.906L120.901 126.886ZM69.9024 144.772C71.1951 144.772 72.2448 145.822 72.2448 147.114C72.2448 148.407 71.1951 149.457 69.9024 149.457C68.6096 149.457 67.5599 148.407 67.5599 147.114C67.5599 145.822 68.6096 144.772 69.9024 144.772ZM134.987 110.075C134.987 108.782 136.036 107.732 137.329 107.732C138.622 107.732 139.672 108.782 139.672 110.075C139.672 111.368 138.622 112.417 137.329 112.417C136.036 112.417 134.987 111.368 134.987 110.075ZM124.761 101.476C124.761 100.183 125.811 99.1331 127.104 99.1331C128.396 99.1331 129.446 100.183 129.446 101.476C129.446 102.768 128.396 103.818 127.104 103.818C125.811 103.818 124.761 102.768 124.761 101.476ZM115.347 92.8762C115.347 91.5835 116.397 90.5338 117.69 90.5338C118.983 90.5338 120.032 91.5835 120.032 92.8762C120.032 94.169 118.983 95.2187 117.69 95.2187C116.397 95.2187 115.347 94.169 115.347 92.8762ZM73.1704 52.9926C73.1704 54.2854 72.1207 55.3351 70.828 55.3351C69.5352 55.3351 68.4855 54.2854 68.4855 52.9926C68.4855 51.6999 69.5352 50.6502 70.828 50.6502C72.1207 50.6502 73.1704 51.6999 73.1704 52.9926ZM80.5675 61.5919C80.5675 62.8847 79.5178 63.9344 78.225 63.9344C76.9323 63.9344 75.8826 62.8847 75.8826 61.5919C75.8826 60.2992 76.9323 59.2495 78.225 59.2495C79.5178 59.2495 80.5675 60.2992 80.5675 61.5919ZM90.1622 70.1887C90.1622 71.4814 89.1125 72.5311 87.8198 72.5311C86.527 72.5311 85.4773 71.4814 85.4773 70.1887C85.4773 68.8959 86.527 67.8462 87.8198 67.8462C89.1125 67.8462 90.1622 68.8959 90.1622 70.1887ZM163.535 152.934C163.535 154.227 162.486 155.277 161.193 155.277C159.9 155.277 158.851 154.227 158.851 152.934C158.851 151.642 159.9 150.592 161.193 150.592C162.486 150.592 163.535 151.642 163.535 152.934ZM161.193 -13.1517C159.9 -13.1517 158.851 -14.2014 158.851 -15.4941C158.851 -16.7868 159.9 -17.8365 161.193 -17.8365C162.486 -17.8365 163.535 -16.7868 163.535 -15.4941C163.535 -14.2014 162.486 -13.1517 161.193 -13.1517ZM161.581 126.886V70.5765H168.753V126.886H161.581ZM171.481 140.907C171.481 142.199 170.431 143.249 169.138 143.249C167.845 143.249 166.796 142.199 166.796 140.907C166.796 139.614 167.845 138.564 169.138 138.564C170.431 138.564 171.481 139.614 171.481 140.907ZM169.526 28.4022H177.347V36.2258H169.526V28.4022ZM169.526 37.0015H177.347V44.8251H169.526V37.0015ZM169.526 45.6008H177.347V52.6022H169.526V45.6008ZM169.526 53.3779H177.347V61.2015H169.526V53.3779ZM169.526 61.9772H177.347V69.8008H169.526V61.9772ZM169.526 70.5765H177.347V118.286H169.526V70.5765ZM185.946 126.886H169.526V119.062H185.946V126.886ZM185.946 118.286H178.125V70.5765H185.946V118.286ZM185.946 69.8008H178.125V61.9772H185.946V69.8008ZM185.946 61.2015H178.125V53.3779H185.946V61.2015ZM185.946 52.6022H178.125V45.6008H185.946V52.6022ZM185.946 44.8251H178.125V37.0015H185.946V44.8251ZM185.946 36.2258H178.125V28.4022H185.946V36.2258ZM254.1 169.254C254.1 170.547 253.05 171.596 251.757 171.596C250.464 171.596 249.415 170.547 249.415 169.254C249.415 167.961 250.464 166.911 251.757 166.911C253.05 166.911 254.1 167.961 254.1 169.254ZM243.548 53.3779H251.369V61.2015H243.548V53.3779ZM243.548 61.9772H251.369V69.8008H243.548V61.9772ZM243.548 70.5765H251.369V118.286H243.548V70.5765ZM243.548 119.062H251.369V126.886H243.548V119.062ZM234.564 43.3876C235.857 43.3876 236.906 44.4373 236.906 45.73C236.906 47.0228 235.857 48.0725 234.564 48.0725C233.271 48.0725 232.221 47.0228 232.221 45.73C232.221 44.4373 233.271 43.3876 234.564 43.3876ZM251.837 34.2712C253.13 34.2712 254.18 35.3209 254.18 36.6136C254.18 37.9064 253.13 38.9561 251.837 38.9561C250.545 38.9561 249.495 37.9064 249.495 36.6136C249.495 35.3209 250.545 34.2712 251.837 34.2712ZM243.16 25.6719C244.453 25.6719 245.503 26.7216 245.503 28.0143C245.503 29.3071 244.453 30.3568 243.16 30.3568C241.868 30.3568 240.818 29.3071 240.818 28.0143C240.818 26.7216 241.868 25.6719 243.16 25.6719ZM178.123 -54.5219H185.944V-48.2521H178.123V-54.5219ZM178.123 -40.126V-47.4765H185.944V-40.126H178.123ZM204.396 126.886H186.722V119.062H204.396V126.886ZM186.722 118.286V70.5765H234.176V118.286H186.722ZM205.172 126.886V119.062H234.176V126.886H205.172ZM236.906 186.274C236.906 187.567 235.857 188.616 234.564 188.616C233.271 188.616 232.221 187.567 232.221 186.274C232.221 184.981 233.271 183.932 234.564 183.932C235.857 183.932 236.906 184.981 236.906 186.274ZM186.722 69.8008V61.9772H242.773V69.8008H186.722ZM242.773 70.5765V118.286H234.952V70.5765H242.773ZM234.952 126.886V119.062H242.773V126.886H234.952ZM245.503 177.765C245.503 179.058 244.453 180.108 243.16 180.108C241.868 180.108 240.818 179.058 240.818 177.765C240.818 176.473 241.868 175.423 243.16 175.423C244.453 175.423 245.503 176.473 245.503 177.765ZM242.773 53.3779V61.2015H186.722V53.3779H242.773ZM188.677 -15.4941C188.677 -14.2014 187.627 -13.1517 186.334 -13.1517C185.042 -13.1517 183.992 -14.2014 183.992 -15.4941C183.992 -16.7868 185.042 -17.8365 186.334 -17.8365C187.627 -17.8365 188.677 -16.7868 188.677 -15.4941ZM212.598 -40.126H186.722V-47.4765H212.598V-40.126ZM222.055 -40.126H213.373V-47.4765H222.055V-40.126ZM222.055 -48.2521H186.722V-54.5219H222.055V-48.2521Z" fill="#E7EAE9" fill-opacity="0.1"/>
<path d="M558.274 -54.5219V-55.2975H465.954V-73.4373H465.178V-55.2975H457.357V-73.4373H456.582V-28.3362C455.046 -28.1448 453.851 -26.8314 453.851 -25.2439C453.851 -23.5246 455.25 -22.1258 456.969 -22.1258C458.689 -22.1258 460.088 -23.5246 460.088 -25.2439C460.088 -26.8314 458.893 -28.1448 457.357 -28.3362V-39.3503H465.178V-18.5837C463.643 -18.3924 462.448 -17.079 462.448 -15.4915C462.448 -13.904 463.643 -12.5906 465.178 -12.3993V27.6291H457.357V-22.1207H456.582V27.6291H448.761V-22.1207H447.985V27.6291H440.813V-12.3993C442.349 -12.5906 443.543 -13.904 443.543 -15.4915C443.543 -17.2109 442.144 -18.6096 440.425 -18.6096C438.706 -18.6096 437.307 -17.2109 437.307 -15.4915C437.307 -13.904 438.501 -12.5906 440.037 -12.3993V52.6048H408.732V-73.4373H407.956V11.4905H400.135V-73.4373H399.36V2.89124H391.539V-73.4373H390.763V-5.70548H382.743V-58.3484C384.279 -58.5397 385.473 -59.8532 385.473 -61.4406C385.473 -63.16 384.074 -64.5587 382.355 -64.5587C380.636 -64.5587 379.237 -63.16 379.237 -61.4406C379.237 -59.8532 380.431 -58.5397 381.967 -58.3484V-5.70807H341.903V-36.6485C343.438 -36.8398 344.633 -38.1532 344.633 -39.7407C344.633 -41.3282 343.438 -42.6416 341.903 -42.8329V-73.4373H341.127V-42.8304C339.718 -42.6546 338.601 -41.535 338.423 -40.126H333.303V-44.7721C334.839 -44.9634 336.034 -46.2768 336.034 -47.8643C336.034 -49.4518 334.839 -50.7652 333.303 -50.9565V-73.4373H332.528V-50.9565C331.119 -50.7807 330.002 -49.6612 329.823 -48.2521H324.704V-51.8227C326.224 -52.0295 327.398 -53.3326 327.398 -54.9097C327.398 -56.4869 326.242 -57.8106 324.704 -58.0019V-73.4373H323.928V-57.9994C322.519 -57.8236 321.364 -56.704 321.188 -55.295H279.039V-54.5193H321.188C321.366 -53.0973 322.501 -51.9726 323.926 -51.8097V-48.2495H279.037V-47.4739H323.926V-40.1234H279.037V-39.3477H323.926V-5.70289H301.334C301.143 -7.23866 299.832 -8.43316 298.242 -8.43316C296.652 -8.43316 295.343 -7.23866 295.149 -5.70289H279.034V-4.92725H295.149C295.341 -3.39147 296.652 -2.19698 298.242 -2.19698C299.832 -2.19698 301.14 -3.39147 301.334 -4.92725H323.926V2.89641H312.529C312.338 1.36063 311.027 0.166142 309.437 0.166142C307.847 0.166142 306.539 1.36063 306.345 2.89641H279.037V3.67205H306.345C306.536 5.20782 307.847 6.40231 309.437 6.40231C311.027 6.40231 312.335 5.20782 312.529 3.67205H323.926V92.4936H312.392V52.61H279.037V53.3856H311.616V93.2692H323.926V101.093H303.622V61.2067H279.037V61.9824H302.846V101.869H323.926V109.692H295.393V69.806H279.037V70.5817H294.617V110.468H323.926V168.871H310.556C310.365 167.335 309.052 166.141 307.464 166.141C305.877 166.141 304.566 167.335 304.372 168.871H279.037V169.647H304.372C304.563 171.183 305.877 172.377 307.464 172.377C309.052 172.377 310.362 171.183 310.556 169.647H323.926V177.383H299.532C299.341 175.847 298.03 174.652 296.44 174.652C294.85 174.652 293.541 175.847 293.347 177.383H279.034V178.158H293.347C293.539 179.694 294.85 180.888 296.44 180.888C298.03 180.888 299.338 179.694 299.532 178.158H323.926V185.894H279.037V186.67H323.926V205.805H324.701V186.67H332.523V205.805H333.298V186.67H341.119V205.805H341.895V186.67H366.659V193.462C365.123 193.653 363.928 194.966 363.928 196.554C363.928 198.273 365.327 199.672 367.046 199.672C368.766 199.672 370.165 198.273 370.165 196.554C370.165 194.966 368.97 193.653 367.434 193.462V185.894H341.895V178.158H390.755V205.805H391.531V178.158H399.352V205.805H400.128V127.666H407.949V205.805H408.724V127.666H440.029V149.85C438.494 150.041 437.299 151.355 437.299 152.942C437.299 154.661 438.698 156.06 440.417 156.06C442.137 156.06 443.535 154.661 443.535 152.942C443.535 151.355 442.341 150.041 440.805 149.85V127.666H447.977V137.822C446.441 138.014 445.247 139.327 445.247 140.914C445.247 142.634 446.646 144.033 448.365 144.033C450.084 144.033 451.483 142.634 451.483 140.914C451.483 139.327 450.289 138.014 448.753 137.822V127.666H475.026V168.871H456.576V205.805H457.352V169.647H475.802V127.666H483.623V177.383H465.173V205.805H465.949V178.158H484.399V127.666H513.403V183.19C511.867 183.381 510.672 184.694 510.672 186.282C510.672 188.001 512.071 189.4 513.79 189.4C515.378 189.4 516.689 188.205 516.883 186.67H558.271V185.894H516.883C516.707 184.485 515.587 183.365 514.178 183.19V127.666H521.999V174.678C520.464 174.87 519.269 176.183 519.269 177.77C519.269 179.49 520.668 180.888 522.387 180.888C523.975 180.888 525.286 179.694 525.479 178.158H558.268V177.383H525.479C525.304 175.974 524.184 174.854 522.775 174.678V127.666H530.596V166.169C529.06 166.361 527.866 167.674 527.866 169.262C527.866 170.981 529.265 172.38 530.984 172.38C532.571 172.38 533.882 171.185 534.076 169.649H558.268V168.874H534.076C533.9 167.465 532.781 166.345 531.372 166.169V70.5842H558.268V69.8086H531.372V61.9849H558.268V61.2093H531.372V53.3856H558.268V52.61H465.949V45.6085H510.68C510.68 45.6525 510.672 45.6938 510.672 45.7378C510.672 47.4571 512.071 48.8559 513.79 48.8559C515.51 48.8559 516.909 47.4571 516.909 45.7378C516.909 44.0184 515.51 42.6197 513.79 42.6197C512.387 42.6197 511.197 43.5531 510.807 44.8329H465.949V37.0092H527.972C528.163 38.545 529.477 39.7395 531.064 39.7395C532.783 39.7395 534.182 38.3407 534.182 36.6214C534.182 34.902 532.783 33.5033 531.064 33.5033C529.477 33.5033 528.166 34.6978 527.972 36.2336H465.949V28.4099H519.298C519.489 29.9457 520.802 31.1402 522.39 31.1402C524.109 31.1402 525.508 29.7414 525.508 28.0221C525.508 26.3027 524.109 24.904 522.39 24.904C520.802 24.904 519.491 26.0985 519.298 27.6343H465.949V-12.3941C467.485 -12.5854 468.679 -13.8989 468.679 -15.4863C468.679 -17.0738 467.485 -18.3873 465.949 -18.5786V-39.3451H491.824V3.67464H558.268V2.89899H492.6V-39.3451H501.282V-4.92467H558.268V-5.70031H502.058V-39.3451H558.268V-40.1208H502.058V-47.4713H558.268V-48.2469H502.058V-54.5167H558.268L558.274 -54.5219ZM459.309 -25.2439C459.309 -23.9512 458.26 -22.9015 456.967 -22.9015C455.674 -22.9015 454.624 -23.9512 454.624 -25.2439C454.624 -26.5367 455.674 -27.5864 456.967 -27.5864C458.26 -27.5864 459.309 -26.5367 459.309 -25.2439ZM298.249 -2.97521C296.957 -2.97521 295.907 -4.02492 295.907 -5.31766C295.907 -6.61039 296.957 -7.6601 298.249 -7.6601C299.542 -7.6601 300.592 -6.61039 300.592 -5.31766C300.592 -4.02492 299.542 -2.97521 298.249 -2.97521ZM309.442 5.6215C308.149 5.6215 307.1 4.5718 307.1 3.27906C307.1 1.98632 308.149 0.936617 309.442 0.936617C310.735 0.936617 311.784 1.98632 311.784 3.27906C311.784 4.5718 310.735 5.6215 309.442 5.6215ZM307.469 171.596C306.177 171.596 305.127 170.547 305.127 169.254C305.127 167.961 306.177 166.911 307.469 166.911C308.762 166.911 309.812 167.961 309.812 169.254C309.812 170.547 308.762 171.596 307.469 171.596ZM296.445 180.108C295.152 180.108 294.102 179.058 294.102 177.765C294.102 176.473 295.152 175.423 296.445 175.423C297.738 175.423 298.787 176.473 298.787 177.765C298.787 179.058 297.738 180.108 296.445 180.108ZM369.394 196.546C369.394 197.839 368.344 198.889 367.052 198.889C365.759 198.889 364.709 197.839 364.709 196.546C364.709 195.253 365.759 194.204 367.052 194.204C368.344 194.204 369.394 195.253 369.394 196.546ZM447.982 28.4022V44.8251H440.81V28.4022H447.982ZM440.813 61.2015V53.3779H447.985V61.2015H440.813ZM447.982 61.9772V69.8008H440.81V61.9772H447.982ZM440.813 52.6022V45.6008H447.985V52.6022H440.813ZM408.73 53.3779H440.035V61.2015H408.73V53.3779ZM408.73 61.9772H440.035V69.8008H408.73V61.9772ZM400.133 12.2662H407.954V52.5996H400.133V12.2662ZM400.133 53.3779H407.954V61.2015H400.133V53.3779ZM400.133 61.9772H407.954V69.8008H400.133V61.9772ZM391.536 3.66688H399.357V11.4905H391.536V3.66688ZM391.536 12.2662H399.357V52.5996H391.536V12.2662ZM399.357 53.3779V61.2015H382.74V53.3779H399.357ZM390.76 12.2662V52.5996H382.74V12.2662H390.76ZM382.74 11.4905V3.66688H390.76V11.4905H382.74ZM390.76 -4.92983V2.89383H382.74V-4.92983H390.76ZM380.01 -61.4381C380.01 -62.7308 381.06 -63.7805 382.352 -63.7805C383.645 -63.7805 384.695 -62.7308 384.695 -61.4381C384.695 -60.1453 383.645 -59.0956 382.352 -59.0956C381.06 -59.0956 380.01 -60.1453 380.01 -61.4381ZM381.965 -4.92983V2.89383H341.9V-4.92983H381.965ZM381.965 3.66688V11.4905H341.9V3.66688H381.965ZM324.283 -52.5673C322.99 -52.5673 321.94 -53.617 321.94 -54.9097C321.94 -56.2025 322.99 -57.2522 324.283 -57.2522C325.575 -57.2522 326.625 -56.2025 326.625 -54.9097C326.625 -53.617 325.575 -52.5673 324.283 -52.5673ZM332.528 185.886H324.707V178.15H332.528V185.886ZM332.528 177.377H324.707V169.642H332.528V177.377ZM332.528 168.866H324.707V110.463H332.528V168.866ZM332.528 109.687H324.707V101.863H332.528V109.687ZM332.528 101.088H324.707V93.2641H332.528V101.088ZM332.528 92.4884H324.707V3.66688H332.528V92.4884ZM332.528 2.89124H324.707V-4.93242H332.528V2.89124ZM332.528 -5.70548H324.707V-39.3503H332.528V-5.70548ZM332.528 -40.126H324.707V-47.4765H329.826C330.002 -46.0674 331.121 -44.9479 332.53 -44.7721V-40.126H332.528ZM332.916 -45.5218C331.623 -45.5218 330.573 -46.5715 330.573 -47.8643C330.573 -49.157 331.623 -50.2067 332.916 -50.2067C334.208 -50.2067 335.258 -49.157 335.258 -47.8643C335.258 -46.5715 334.208 -45.5218 332.916 -45.5218ZM341.124 185.886H333.303V178.15H341.124V185.886ZM341.124 177.377H333.303V169.642H341.124V177.377ZM341.124 168.866H333.303V110.463H341.124V168.866ZM341.124 109.687H333.303V101.863H341.124V109.687ZM341.124 101.088H333.303V93.2641H341.124V101.088ZM341.124 92.4884H333.303V12.2662H341.124V92.4884ZM341.124 11.4905H333.303V3.66688H341.124V11.4905ZM341.124 2.89124H333.303V-4.93242H341.124V2.89124ZM341.124 -5.70548H333.303V-39.3503H338.423C338.598 -37.9412 339.718 -36.8217 341.127 -36.6459V-5.70548H341.124ZM341.512 -37.3957C340.22 -37.3957 339.17 -38.4454 339.17 -39.7381C339.17 -41.0309 340.22 -42.0806 341.512 -42.0806C342.805 -42.0806 343.855 -41.0309 343.855 -39.7381C343.855 -38.4454 342.805 -37.3957 341.512 -37.3957ZM357.346 109.687H341.9V101.863H357.346V109.687ZM357.734 155.044C359.026 155.044 360.076 156.094 360.076 157.387C360.076 158.679 359.026 159.729 357.734 159.729C356.441 159.729 355.391 158.679 355.391 157.387C355.391 156.094 356.441 155.044 357.734 155.044ZM390.76 177.377H341.9V169.642H390.76V177.377ZM399.357 177.377H391.536V169.642H399.357V177.377ZM400.133 126.886H399.357V168.866H341.9V110.463H348.746V144.022C347.211 144.213 346.016 145.527 346.016 147.114C346.016 148.834 347.415 150.232 349.134 150.232C350.854 150.232 352.252 148.834 352.252 147.114C352.252 145.527 351.058 144.213 349.522 144.022V110.463H357.343V154.294C355.807 154.486 354.613 155.799 354.613 157.387C354.613 159.106 356.012 160.505 357.731 160.505C359.45 160.505 360.849 159.106 360.849 157.387C360.849 155.799 359.655 154.486 358.119 154.294V110.463H413.469C413.66 111.998 414.971 113.193 416.561 113.193C418.28 113.193 419.679 111.794 419.679 110.075C419.679 108.355 418.28 106.957 416.561 106.957C414.973 106.957 413.663 108.151 413.469 109.687H358.119V101.863H403.243C403.434 103.399 404.748 104.594 406.335 104.594C408.055 104.594 409.453 103.195 409.453 101.476C409.453 99.7562 408.055 98.3574 406.335 98.3574C404.748 98.3574 403.437 99.5519 403.243 101.088H341.898V93.2641H393.827C394.018 94.7998 395.329 95.9943 396.919 95.9943C398.638 95.9943 400.037 94.5956 400.037 92.8762C400.037 91.1569 398.638 89.7581 396.919 89.7581C395.332 89.7581 394.021 90.9526 393.827 92.4884H341.898V12.2662H381.962V52.5996H353.15C352.956 51.0639 351.645 49.8746 350.06 49.8746C348.341 49.8746 346.942 51.2733 346.942 52.9926C346.942 54.712 348.341 56.1107 350.06 56.1107C351.65 56.1107 352.961 54.9137 353.152 53.3753H381.965V61.1989H360.549C360.355 59.6632 359.044 58.4713 357.46 58.4713C355.74 58.4713 354.341 59.87 354.341 61.5894C354.341 63.3087 355.74 64.7074 357.46 64.7074C359.05 64.7074 360.36 63.5104 360.552 61.972H399.36V69.7957H370.146C369.955 68.2599 368.644 67.0654 367.054 67.0654C365.335 67.0654 363.936 68.4641 363.936 70.1835C363.936 71.9028 365.335 73.3016 367.054 73.3016C368.642 73.3016 369.953 72.1071 370.146 70.5713H440.04V126.88H400.138L400.133 126.886ZM349.134 144.772C350.427 144.772 351.477 145.822 351.477 147.114C351.477 148.407 350.427 149.457 349.134 149.457C347.842 149.457 346.792 148.407 346.792 147.114C346.792 145.822 347.842 144.772 349.134 144.772ZM414.219 110.075C414.219 108.782 415.268 107.732 416.561 107.732C417.854 107.732 418.903 108.782 418.903 110.075C418.903 111.368 417.854 112.417 416.561 112.417C415.268 112.417 414.219 111.368 414.219 110.075ZM403.993 101.476C403.993 100.183 405.043 99.1331 406.335 99.1331C407.628 99.1331 408.678 100.183 408.678 101.476C408.678 102.768 407.628 103.818 406.335 103.818C405.043 103.818 403.993 102.768 403.993 101.476ZM394.579 92.8762C394.579 91.5835 395.629 90.5338 396.922 90.5338C398.214 90.5338 399.264 91.5835 399.264 92.8762C399.264 94.169 398.214 95.2187 396.922 95.2187C395.629 95.2187 394.579 94.169 394.579 92.8762ZM352.402 52.9926C352.402 54.2854 351.353 55.3351 350.06 55.3351C348.767 55.3351 347.717 54.2854 347.717 52.9926C347.717 51.6999 348.767 50.6502 350.06 50.6502C351.353 50.6502 352.402 51.6999 352.402 52.9926ZM359.799 61.5919C359.799 62.8847 358.75 63.9344 357.457 63.9344C356.164 63.9344 355.114 62.8847 355.114 61.5919C355.114 60.2992 356.164 59.2495 357.457 59.2495C358.75 59.2495 359.799 60.2992 359.799 61.5919ZM369.394 70.1887C369.394 71.4814 368.344 72.5311 367.052 72.5311C365.759 72.5311 364.709 71.4814 364.709 70.1887C364.709 68.8959 365.759 67.8462 367.052 67.8462C368.344 67.8462 369.394 68.8959 369.394 70.1887ZM442.767 152.934C442.767 154.227 441.718 155.277 440.425 155.277C439.132 155.277 438.082 154.227 438.082 152.934C438.082 151.642 439.132 150.592 440.425 150.592C441.718 150.592 442.767 151.642 442.767 152.934ZM440.425 -13.1517C439.132 -13.1517 438.082 -14.2014 438.082 -15.4941C438.082 -16.7868 439.132 -17.8365 440.425 -17.8365C441.718 -17.8365 442.767 -16.7868 442.767 -15.4941C442.767 -14.2014 441.718 -13.1517 440.425 -13.1517ZM440.813 126.886V70.5765H447.985V126.886H440.813ZM450.713 140.907C450.713 142.199 449.663 143.249 448.37 143.249C447.077 143.249 446.028 142.199 446.028 140.907C446.028 139.614 447.077 138.564 448.37 138.564C449.663 138.564 450.713 139.614 450.713 140.907ZM448.758 28.4022H456.579V36.2258H448.758V28.4022ZM448.758 37.0015H456.579V44.8251H448.758V37.0015ZM448.758 45.6008H456.579V52.6022H448.758V45.6008ZM448.758 53.3779H456.579V61.2015H448.758V53.3779ZM448.758 61.9772H456.579V69.8008H448.758V61.9772ZM448.758 70.5765H456.579V118.286H448.758V70.5765ZM465.178 126.886H448.758V119.062H465.178V126.886ZM465.178 118.286H457.357V70.5765H465.178V118.286ZM465.178 69.8008H457.357V61.9772H465.178V69.8008ZM465.178 61.2015H457.357V53.3779H465.178V61.2015ZM465.178 52.6022H457.357V45.6008H465.178V52.6022ZM465.178 44.8251H457.357V37.0015H465.178V44.8251ZM465.178 36.2258H457.357V28.4022H465.178V36.2258ZM533.332 169.254C533.332 170.547 532.282 171.596 530.989 171.596C529.696 171.596 528.647 170.547 528.647 169.254C528.647 167.961 529.696 166.911 530.989 166.911C532.282 166.911 533.332 167.961 533.332 169.254ZM522.78 53.3779H530.601V61.2015H522.78V53.3779ZM522.78 61.9772H530.601V69.8008H522.78V61.9772ZM522.78 70.5765H530.601V118.286H522.78V70.5765ZM522.78 119.062H530.601V126.886H522.78V119.062ZM513.796 43.3876C515.088 43.3876 516.138 44.4373 516.138 45.73C516.138 47.0228 515.088 48.0725 513.796 48.0725C512.503 48.0725 511.453 47.0228 511.453 45.73C511.453 44.4373 512.503 43.3876 513.796 43.3876ZM531.069 34.2712C532.362 34.2712 533.412 35.3209 533.412 36.6136C533.412 37.9064 532.362 38.9561 531.069 38.9561C529.777 38.9561 528.727 37.9064 528.727 36.6136C528.727 35.3209 529.777 34.2712 531.069 34.2712ZM522.392 25.6719C523.685 25.6719 524.735 26.7216 524.735 28.0143C524.735 29.3071 523.685 30.3568 522.392 30.3568C521.1 30.3568 520.05 29.3071 520.05 28.0143C520.05 26.7216 521.1 25.6719 522.392 25.6719ZM457.355 -54.5219H465.176V-48.2521H457.355V-54.5219ZM457.355 -40.126V-47.4765H465.176V-40.126H457.355ZM483.628 126.886H465.954V119.062H483.628V126.886ZM465.954 118.286V70.5765H513.408V118.286H465.954ZM484.404 126.886V119.062H513.408V126.886H484.404ZM516.138 186.274C516.138 187.567 515.088 188.616 513.796 188.616C512.503 188.616 511.453 187.567 511.453 186.274C511.453 184.981 512.503 183.932 513.796 183.932C515.088 183.932 516.138 184.981 516.138 186.274ZM465.954 69.8008V61.9772H522.005V69.8008H465.954ZM522.005 70.5765V118.286H514.183V70.5765H522.005ZM514.183 126.886V119.062H522.005V126.886H514.183ZM524.735 177.765C524.735 179.058 523.685 180.108 522.392 180.108C521.1 180.108 520.05 179.058 520.05 177.765C520.05 176.473 521.1 175.423 522.392 175.423C523.685 175.423 524.735 176.473 524.735 177.765ZM522.005 53.3779V61.2015H465.954V53.3779H522.005ZM467.909 -15.4941C467.909 -14.2014 466.859 -13.1517 465.566 -13.1517C464.273 -13.1517 463.224 -14.2014 463.224 -15.4941C463.224 -16.7868 464.273 -17.8365 465.566 -17.8365C466.859 -17.8365 467.909 -16.7868 467.909 -15.4941ZM491.829 -40.126H465.954V-47.4765H491.829V-40.126ZM501.287 -40.126H492.605V-47.4765H501.287V-40.126ZM501.287 -48.2521H465.954V-54.5219H501.287V-48.2521Z" fill="#E7EAE9" fill-opacity="0.1"/>
<path d="M169.138 257.101C170.857 257.101 172.256 255.702 172.256 253.983C172.256 252.263 170.857 250.865 169.138 250.865C167.419 250.865 166.02 252.263 166.02 253.983C166.02 255.702 167.419 257.101 169.138 257.101ZM169.138 251.64C170.431 251.64 171.481 252.69 171.481 253.983C171.481 255.275 170.431 256.325 169.138 256.325C167.845 256.325 166.796 255.275 166.796 253.983C166.796 252.69 167.845 251.64 169.138 251.64Z" fill="#E7EAE9" fill-opacity="0.1"/>
<path d="M279.042 224.707V223.931H186.722V205.792H185.946V223.931H178.125V205.792H177.35V250.893C175.814 251.084 174.619 252.398 174.619 253.985C174.619 255.704 176.018 257.103 177.738 257.103C179.457 257.103 180.856 255.704 180.856 253.985C180.856 252.398 179.661 251.084 178.125 250.893V239.879H185.946V260.645C184.411 260.837 183.216 262.15 183.216 263.737C183.216 265.325 184.411 266.638 185.946 266.83V306.858H178.125V257.108H177.35V306.858H169.529V257.108H168.753V306.858H161.581V266.83C163.117 266.638 164.311 265.325 164.311 263.737C164.311 262.018 162.912 260.619 161.193 260.619C159.474 260.619 158.075 262.018 158.075 263.737C158.075 265.325 159.269 266.638 160.805 266.83V331.834H129.5V205.794H128.725V290.722H120.904V205.794H120.128V282.123H112.307V205.794H111.531V273.526H103.511V220.886C105.047 220.694 106.241 219.381 106.241 217.794C106.241 216.074 104.843 214.675 103.123 214.675C101.404 214.675 100.005 216.074 100.005 217.794C100.005 219.381 101.2 220.694 102.735 220.886V273.526H62.6708V242.586C64.2066 242.394 65.4011 241.081 65.4011 239.493C65.4011 237.906 64.2066 236.593 62.6708 236.401V205.794H61.8952V236.401C60.4861 236.577 59.3691 237.697 59.1907 239.106H54.0715V234.46C55.6073 234.268 56.8018 232.955 56.8018 231.367C56.8018 229.78 55.6073 228.466 54.0715 228.275V205.794H53.2959V228.275C51.8868 228.451 50.7698 229.57 50.5914 230.979H45.4722V227.409C46.9925 227.202 48.1663 225.899 48.1663 224.322C48.1663 222.745 47.0106 221.421 45.4722 221.23V205.792H44.6966V221.23C43.2875 221.405 42.1318 222.525 41.9559 223.934H-0.189941V224.71H41.9585C42.1369 226.132 43.272 227.256 44.6966 227.419V230.979H-0.189941V231.755H44.6991V239.106H-0.189941V239.881H44.6991V273.526H22.1072C21.9159 271.99 20.6051 270.796 19.015 270.796C17.4249 270.796 16.1167 271.99 15.9228 273.526H-0.189941V274.302H15.9253C16.1167 275.838 17.4275 277.032 19.0176 277.032C20.6076 277.032 21.9159 275.838 22.1098 274.302H44.7017V282.125H33.3049C33.1136 280.59 31.8028 279.395 30.2127 279.395C28.6226 279.395 27.3144 280.59 27.1205 282.125H-0.189941V282.901H27.1179C27.3092 284.437 28.62 285.631 30.2101 285.631C31.8002 285.631 33.1084 284.437 33.3023 282.901H44.6991V371.723H33.1653V331.839H-0.189941V332.615H32.3897V372.498H44.6991V380.322H24.3954V340.436H-0.189941V341.211H23.6197V381.098H44.6991V388.921H16.1658V349.035H-0.189941V349.811H15.3902V389.697H44.6991V448.1H31.3296C31.1383 446.564 29.8249 445.37 28.2374 445.37C26.6499 445.37 25.3391 446.564 25.1452 448.1H-0.189941V448.876H25.1452C25.3365 450.412 26.6499 451.606 28.2374 451.606C29.8249 451.606 31.1357 450.412 31.3296 448.876H44.6991V456.612H20.3051C20.1138 455.076 18.803 453.881 17.2129 453.881C15.6228 453.881 14.3146 455.076 14.1207 456.612H-0.189941V457.387H14.1233C14.3146 458.923 15.6254 460.117 17.2155 460.117C18.8056 460.117 20.1138 458.923 20.3077 457.387H44.7017V465.123H-0.189941V465.899H44.6991V485.034H45.4748V465.899H53.2959V485.034H54.0715V465.899H61.8926V485.034H62.6682V465.899H87.4319V472.691C85.8962 472.882 84.7017 474.195 84.7017 475.783C84.7017 477.502 86.1004 478.901 87.8198 478.901C89.5391 478.901 90.9378 477.502 90.9378 475.783C90.9378 474.195 89.7433 472.882 88.2076 472.691V465.123H62.6682V457.387H111.529V485.034H112.304V457.387H120.125V485.034H120.901V406.895H128.722V485.034H129.498V406.895H160.803V429.079C159.267 429.27 158.072 430.584 158.072 432.171C158.072 433.89 159.471 435.289 161.19 435.289C162.91 435.289 164.309 433.89 164.309 432.171C164.309 430.584 163.114 429.27 161.578 429.079V406.895H168.75V417.051C167.215 417.243 166.02 418.556 166.02 420.143C166.02 421.863 167.419 423.262 169.138 423.262C170.858 423.262 172.256 421.863 172.256 420.143C172.256 418.556 171.062 417.243 169.526 417.051V406.895H195.8V448.1H177.35V485.034H178.125V448.876H196.575V406.895H204.396V456.612H185.946V485.034H186.722V457.387H205.172V406.895H234.176V462.419C232.64 462.61 231.446 463.923 231.446 465.511C231.446 467.23 232.844 468.629 234.564 468.629C236.151 468.629 237.462 467.434 237.656 465.899H279.044V465.123H237.656C237.48 463.714 236.361 462.594 234.952 462.419V406.895H242.773V453.907C241.237 454.099 240.042 455.412 240.042 456.999C240.042 458.719 241.441 460.117 243.16 460.117C244.748 460.117 246.059 458.923 246.253 457.387H279.042V456.612H246.253C246.077 455.203 244.957 454.083 243.548 453.907V406.895H251.369V445.398C249.834 445.59 248.639 446.903 248.639 448.491C248.639 450.21 250.038 451.609 251.757 451.609C253.345 451.609 254.656 450.414 254.849 448.878H279.042V448.103H254.849C254.674 446.694 253.554 445.574 252.145 445.398V349.813H279.042V349.038H252.145V341.214H279.042V340.438H252.145V332.615H279.042V331.839H186.722V324.838H231.453C231.453 324.881 231.446 324.923 231.446 324.967C231.446 326.686 232.844 328.085 234.564 328.085C236.283 328.085 237.682 326.686 237.682 324.967C237.682 323.247 236.283 321.849 234.564 321.849C233.16 321.849 231.971 322.782 231.58 324.062H186.722V316.238H248.745C248.936 317.774 250.25 318.968 251.837 318.968C253.557 318.968 254.955 317.57 254.955 315.85C254.955 314.131 253.557 312.732 251.837 312.732C250.25 312.732 248.939 313.927 248.745 315.463H186.722V307.639H240.071C240.262 309.175 241.576 310.369 243.163 310.369C244.882 310.369 246.281 308.97 246.281 307.251C246.281 305.532 244.882 304.133 243.163 304.133C241.576 304.133 240.265 305.328 240.071 306.863H186.722V266.835C188.258 266.644 189.452 265.33 189.452 263.743C189.452 262.155 188.258 260.842 186.722 260.65V239.884H212.598V282.904H279.042V282.128H213.373V239.884H222.055V274.304H279.042V273.529H222.831V239.884H279.042V239.108H222.831V231.758H279.042V230.982H222.831V224.712H279.042V224.707ZM180.077 253.982C180.077 255.275 179.028 256.325 177.735 256.325C176.442 256.325 175.393 255.275 175.393 253.982C175.393 252.69 176.442 251.64 177.735 251.64C179.028 251.64 180.077 252.69 180.077 253.982ZM19.0176 276.251C17.7248 276.251 16.6751 275.201 16.6751 273.909C16.6751 272.616 17.7248 271.566 19.0176 271.566C20.3103 271.566 21.36 272.616 21.36 273.909C21.36 275.201 20.3103 276.251 19.0176 276.251ZM30.2101 284.851C28.9174 284.851 27.8677 283.801 27.8677 282.508C27.8677 281.215 28.9174 280.166 30.2101 280.166C31.5029 280.166 32.5526 281.215 32.5526 282.508C32.5526 283.801 31.5029 284.851 30.2101 284.851ZM28.2374 450.823C26.9447 450.823 25.895 449.773 25.895 448.48C25.895 447.188 26.9447 446.138 28.2374 446.138C29.5301 446.138 30.5798 447.188 30.5798 448.48C30.5798 449.773 29.5301 450.823 28.2374 450.823ZM17.2129 459.334C15.9202 459.334 14.8705 458.284 14.8705 456.992C14.8705 455.699 15.9202 454.649 17.2129 454.649C18.5057 454.649 19.5554 455.699 19.5554 456.992C19.5554 458.284 18.5057 459.334 17.2129 459.334ZM90.1622 475.775C90.1622 477.068 89.1125 478.118 87.8198 478.118C86.527 478.118 85.4773 477.068 85.4773 475.775C85.4773 474.482 86.527 473.433 87.8198 473.433C89.1125 473.433 90.1622 474.482 90.1622 475.775ZM168.75 307.629V324.052H161.578V307.629H168.75ZM161.581 340.428V332.604H168.753V340.428H161.581ZM168.75 341.204V349.027H161.578V341.204H168.75ZM161.581 331.829V324.827H168.753V331.829H161.581ZM129.498 332.604H160.803V340.428H129.498V332.604ZM129.498 341.204H160.803V349.027H129.498V341.204ZM120.901 291.495H128.722V331.829H120.901V291.495ZM120.901 332.604H128.722V340.428H120.901V332.604ZM120.901 341.204H128.722V349.027H120.901V341.204ZM112.304 282.896H120.125V290.72H112.304V282.896ZM112.304 291.495H120.125V331.829H112.304V291.495ZM120.125 332.604V340.428H103.508V332.604H120.125ZM111.529 291.495V331.829H103.508V291.495H111.529ZM103.508 290.72V282.896H111.529V290.72H103.508ZM111.529 274.297V282.12H103.508V274.297H111.529ZM100.778 217.788C100.778 216.496 101.828 215.446 103.121 215.446C104.413 215.446 105.463 216.496 105.463 217.788C105.463 219.081 104.413 220.131 103.121 220.131C101.828 220.131 100.778 219.081 100.778 217.788ZM102.733 274.297V282.12H62.6682V274.297H102.733ZM102.733 282.896V290.72H62.6682V282.896H102.733ZM45.0508 226.662C43.758 226.662 42.7083 225.612 42.7083 224.319C42.7083 223.027 43.758 221.977 45.0508 221.977C46.3435 221.977 47.3932 223.027 47.3932 224.319C47.3932 225.612 46.3435 226.662 45.0508 226.662ZM53.2959 465.115H45.4748V457.38H53.2959V465.115ZM53.2959 456.604H45.4748V448.868H53.2959V456.604ZM53.2959 448.092H45.4748V389.689H53.2959V448.092ZM53.2959 388.913H45.4748V381.09H53.2959V388.913ZM53.2959 380.314H45.4748V372.49H53.2959V380.314ZM53.2959 371.715H45.4748V282.893H53.2959V371.715ZM53.2959 282.12H45.4748V274.297H53.2959V282.12ZM53.2959 273.521H45.4748V239.876H53.2959V273.521ZM53.2959 239.1H45.4748V231.75H50.594C50.7698 233.159 51.8894 234.279 53.2984 234.454V239.1H53.2959ZM53.6837 233.707C52.3909 233.707 51.3412 232.657 51.3412 231.365C51.3412 230.072 52.3909 229.022 53.6837 229.022C54.9764 229.022 56.0261 230.072 56.0261 231.365C56.0261 232.657 54.9764 233.707 53.6837 233.707ZM61.8926 465.115H54.0715V457.38H61.8926V465.115ZM61.8926 456.604H54.0715V448.868H61.8926V456.604ZM61.8926 448.092H54.0715V389.689H61.8926V448.092ZM61.8926 388.913H54.0715V381.09H61.8926V388.913ZM61.8926 380.314H54.0715V372.49H61.8926V380.314ZM61.8926 371.715H54.0715V291.493H61.8926V371.715ZM61.8926 290.72H54.0715V282.896H61.8926V290.72ZM61.8926 282.12H54.0715V274.297H61.8926V282.12ZM61.8926 273.521H54.0715V239.876H59.1907C59.3666 241.285 60.4861 242.405 61.8952 242.581V273.521H61.8926ZM62.2804 241.831C60.9877 241.831 59.938 240.781 59.938 239.488C59.938 238.196 60.9877 237.146 62.2804 237.146C63.5731 237.146 64.6228 238.196 64.6228 239.488C64.6228 240.781 63.5731 241.831 62.2804 241.831ZM78.1139 388.913H62.6682V381.09H78.1139V388.913ZM78.5017 434.27C79.7944 434.27 80.8441 435.32 80.8441 436.613C80.8441 437.906 79.7944 438.955 78.5017 438.955C77.2089 438.955 76.1592 437.906 76.1592 436.613C76.1592 435.32 77.2089 434.27 78.5017 434.27ZM111.529 456.604H62.6682V448.868H111.529V456.604ZM120.125 456.604H112.304V448.868H120.125V456.604ZM120.901 406.112H120.125V448.092H62.6682V389.689H69.5146V423.249C67.9788 423.44 66.7843 424.753 66.7843 426.341C66.7843 428.06 68.183 429.459 69.9024 429.459C71.6217 429.459 73.0205 428.06 73.0205 426.341C73.0205 424.753 71.826 423.44 70.2902 423.249V389.689H78.1113V433.521C76.5755 433.712 75.381 435.025 75.381 436.613C75.381 438.332 76.7798 439.731 78.4991 439.731C80.2184 439.731 81.6172 438.332 81.6172 436.613C81.6172 435.025 80.4227 433.712 78.8869 433.521V389.689H134.237C134.428 391.225 135.739 392.419 137.329 392.419C139.048 392.419 140.447 391.021 140.447 389.301C140.447 387.582 139.048 386.183 137.329 386.183C135.742 386.183 134.431 387.378 134.237 388.913H78.8869V381.09H124.011C124.203 382.626 125.516 383.82 127.104 383.82C128.823 383.82 130.222 382.421 130.222 380.702C130.222 378.983 128.823 377.584 127.104 377.584C125.516 377.584 124.205 378.778 124.011 380.314H62.6656V372.49H114.595C114.786 374.026 116.097 375.221 117.687 375.221C119.407 375.221 120.805 373.822 120.805 372.103C120.805 370.383 119.407 368.985 117.687 368.985C116.1 368.985 114.789 370.179 114.595 371.715H62.6656V291.493H102.73V331.826H73.9176C73.7237 330.29 72.4129 329.101 70.828 329.101C69.1086 329.101 67.7099 330.5 67.7099 332.219C67.7099 333.938 69.1086 335.337 70.828 335.337C72.4181 335.337 73.7289 334.14 73.9202 332.602H102.733V340.425H81.3173C81.1234 338.89 79.8125 337.698 78.2276 337.698C76.5083 337.698 75.1095 339.096 75.1095 340.816C75.1095 342.535 76.5083 343.934 78.2276 343.934C79.8177 343.934 81.1285 342.737 81.3199 341.198H120.128V349.022H90.9146C90.7232 347.486 89.4124 346.292 87.8223 346.292C86.103 346.292 84.7043 347.691 84.7043 349.41C84.7043 351.129 86.103 352.528 87.8223 352.528C89.4098 352.528 90.7207 351.333 90.9146 349.798H160.808V406.107H120.906L120.901 406.112ZM69.9024 423.998C71.1951 423.998 72.2448 425.048 72.2448 426.341C72.2448 427.634 71.1951 428.683 69.9024 428.683C68.6096 428.683 67.5599 427.634 67.5599 426.341C67.5599 425.048 68.6096 423.998 69.9024 423.998ZM134.987 389.301C134.987 388.009 136.036 386.959 137.329 386.959C138.622 386.959 139.672 388.009 139.672 389.301C139.672 390.594 138.622 391.644 137.329 391.644C136.036 391.644 134.987 390.594 134.987 389.301ZM124.761 380.702C124.761 379.409 125.811 378.359 127.104 378.359C128.396 378.359 129.446 379.409 129.446 380.702C129.446 381.995 128.396 383.044 127.104 383.044C125.811 383.044 124.761 381.995 124.761 380.702ZM115.347 372.103C115.347 370.81 116.397 369.76 117.69 369.76C118.983 369.76 120.032 370.81 120.032 372.103C120.032 373.395 118.983 374.445 117.69 374.445C116.397 374.445 115.347 373.395 115.347 372.103ZM73.1704 332.222C73.1704 333.514 72.1207 334.564 70.828 334.564C69.5352 334.564 68.4855 333.514 68.4855 332.222C68.4855 330.929 69.5352 329.879 70.828 329.879C72.1207 329.879 73.1704 330.929 73.1704 332.222ZM80.5675 340.821C80.5675 342.114 79.5178 343.163 78.225 343.163C76.9323 343.163 75.8826 342.114 75.8826 340.821C75.8826 339.528 76.9323 338.478 78.225 338.478C79.5178 338.478 80.5675 339.528 80.5675 340.821ZM90.1622 349.415C90.1622 350.708 89.1125 351.758 87.8198 351.758C86.527 351.758 85.4773 350.708 85.4773 349.415C85.4773 348.122 86.527 347.073 87.8198 347.073C89.1125 347.073 90.1622 348.122 90.1622 349.415ZM163.535 432.163C163.535 433.456 162.486 434.506 161.193 434.506C159.9 434.506 158.851 433.456 158.851 432.163C158.851 430.871 159.9 429.821 161.193 429.821C162.486 429.821 163.535 430.871 163.535 432.163ZM161.193 266.077C159.9 266.077 158.851 265.028 158.851 263.735C158.851 262.442 159.9 261.392 161.193 261.392C162.486 261.392 163.535 262.442 163.535 263.735C163.535 265.028 162.486 266.077 161.193 266.077ZM161.581 406.112V349.803H168.753V406.112H161.581ZM171.481 420.136C171.481 421.428 170.431 422.478 169.138 422.478C167.845 422.478 166.796 421.428 166.796 420.136C166.796 418.843 167.845 417.793 169.138 417.793C170.431 417.793 171.481 418.843 171.481 420.136ZM169.526 307.629H177.347V315.452H169.526V307.629ZM169.526 316.228H177.347V324.052H169.526V316.228ZM169.526 324.827H177.347V331.829H169.526V324.827ZM169.526 332.604H177.347V340.428H169.526V332.604ZM169.526 341.204H177.347V349.027H169.526V341.204ZM169.526 349.803H177.347V397.513H169.526V349.803ZM185.946 406.112H169.526V398.288H185.946V406.112ZM185.946 397.513H178.125V349.803H185.946V397.513ZM185.946 349.027H178.125V341.204H185.946V349.027ZM185.946 340.428H178.125V332.604H185.946V340.428ZM185.946 331.829H178.125V324.827H185.946V331.829ZM185.946 324.052H178.125V316.228H185.946V324.052ZM185.946 315.452H178.125V307.629H185.946V315.452ZM254.1 448.48C254.1 449.773 253.05 450.823 251.757 450.823C250.464 450.823 249.415 449.773 249.415 448.48C249.415 447.188 250.464 446.138 251.757 446.138C253.05 446.138 254.1 447.188 254.1 448.48ZM243.548 332.604H251.369V340.428H243.548V332.604ZM243.548 341.204H251.369V349.027H243.548V341.204ZM243.548 349.803H251.369V397.513H243.548V349.803ZM243.548 398.288H251.369V406.112H243.548V398.288ZM234.564 322.614C235.857 322.614 236.906 323.664 236.906 324.956C236.906 326.249 235.857 327.299 234.564 327.299C233.271 327.299 232.221 326.249 232.221 324.956C232.221 323.664 233.271 322.614 234.564 322.614ZM251.837 313.498C253.13 313.498 254.18 314.547 254.18 315.84C254.18 317.133 253.13 318.182 251.837 318.182C250.545 318.182 249.495 317.133 249.495 315.84C249.495 314.547 250.545 313.498 251.837 313.498ZM243.16 304.898C244.453 304.898 245.503 305.948 245.503 307.241C245.503 308.533 244.453 309.583 243.16 309.583C241.868 309.583 240.818 308.533 240.818 307.241C240.818 305.948 241.868 304.898 243.16 304.898ZM178.123 224.707H185.944V230.977H178.123V224.707ZM178.123 239.1V231.75H185.944V239.1H178.123ZM204.396 406.112H186.722V398.288H204.396V406.112ZM186.722 397.513V349.803H234.176V397.513H186.722ZM205.172 406.112V398.288H234.176V406.112H205.172ZM236.906 465.503C236.906 466.796 235.857 467.846 234.564 467.846C233.271 467.846 232.221 466.796 232.221 465.503C232.221 464.21 233.271 463.161 234.564 463.161C235.857 463.161 236.906 464.21 236.906 465.503ZM186.722 349.027V341.204H242.773V349.027H186.722ZM242.773 349.803V397.513H234.952V349.803H242.773ZM234.952 406.112V398.288H242.773V406.112H234.952ZM245.503 456.992C245.503 458.284 244.453 459.334 243.16 459.334C241.868 459.334 240.818 458.284 240.818 456.992C240.818 455.699 241.868 454.649 243.16 454.649C244.453 454.649 245.503 455.699 245.503 456.992ZM242.773 332.604V340.428H186.722V332.604H242.773ZM188.677 263.735C188.677 265.028 187.627 266.077 186.334 266.077C185.042 266.077 183.992 265.028 183.992 263.735C183.992 262.442 185.042 261.392 186.334 261.392C187.627 261.392 188.677 262.442 188.677 263.735ZM212.598 239.1H186.722V231.75H212.598V239.1ZM222.055 239.1H213.373V231.75H222.055V239.1ZM222.055 230.974H186.722V224.705H222.055V230.974Z" fill="#E7EAE9" fill-opacity="0.1"/>
<path d="M448.37 257.101C450.089 257.101 451.488 255.702 451.488 253.983C451.488 252.263 450.089 250.865 448.37 250.865C446.651 250.865 445.252 252.263 445.252 253.983C445.252 255.702 446.651 257.101 448.37 257.101ZM448.37 251.64C449.663 251.64 450.712 252.69 450.712 253.983C450.712 255.275 449.663 256.325 448.37 256.325C447.077 256.325 446.028 255.275 446.028 253.983C446.028 252.69 447.077 251.64 448.37 251.64Z" fill="#E7EAE9" fill-opacity="0.1"/>
<path d="M558.274 224.707V223.931H465.954V205.792H465.178V223.931H457.357V205.792H456.582V250.893C455.046 251.084 453.851 252.398 453.851 253.985C453.851 255.704 455.25 257.103 456.969 257.103C458.689 257.103 460.088 255.704 460.088 253.985C460.088 252.398 458.893 251.084 457.357 250.893V239.879H465.178V260.645C463.643 260.837 462.448 262.15 462.448 263.737C462.448 265.325 463.643 266.638 465.178 266.83V306.858H457.357V257.108H456.582V306.858H448.761V257.108H447.985V306.858H440.813V266.83C442.349 266.638 443.543 265.325 443.543 263.737C443.543 262.018 442.144 260.619 440.425 260.619C438.706 260.619 437.307 262.018 437.307 263.737C437.307 265.325 438.501 266.638 440.037 266.83V331.834H408.732V205.794H407.956V290.722H400.135V205.794H399.36V282.123H391.539V205.794H390.763V273.526H382.743V220.886C384.279 220.694 385.473 219.381 385.473 217.794C385.473 216.074 384.074 214.675 382.355 214.675C380.636 214.675 379.237 216.074 379.237 217.794C379.237 219.381 380.431 220.694 381.967 220.886V273.526H341.903V242.586C343.438 242.394 344.633 241.081 344.633 239.493C344.633 237.906 343.438 236.593 341.903 236.401V205.794H341.127V236.401C339.718 236.577 338.601 237.697 338.423 239.106H333.303V234.46C334.839 234.268 336.034 232.955 336.034 231.367C336.034 229.78 334.839 228.466 333.303 228.275V205.794H332.528V228.275C331.119 228.451 330.002 229.57 329.823 230.979H324.704V227.409C326.224 227.202 327.398 225.899 327.398 224.322C327.398 222.745 326.242 221.421 324.704 221.23V205.792H323.928V221.23C322.519 221.405 321.364 222.525 321.188 223.934H279.039V224.71H321.188C321.366 226.132 322.501 227.256 323.926 227.419V230.979H279.037V231.755H323.926V239.106H279.037V239.881H323.926V273.526H301.334C301.143 271.99 299.832 270.796 298.242 270.796C296.652 270.796 295.343 271.99 295.149 273.526H279.034V274.302H295.149C295.341 275.838 296.652 277.032 298.242 277.032C299.832 277.032 301.14 275.838 301.334 274.302H323.926V282.125H312.529C312.338 280.59 311.027 279.395 309.437 279.395C307.847 279.395 306.539 280.59 306.345 282.125H279.037V282.901H306.345C306.536 284.437 307.847 285.631 309.437 285.631C311.027 285.631 312.335 284.437 312.529 282.901H323.926V371.723H312.392V331.839H279.037V332.615H311.616V372.498H323.926V380.322H303.622V340.436H279.037V341.211H302.846V381.098H323.926V388.921H295.393V349.035H279.037V349.811H294.617V389.697H323.926V448.1H310.556C310.365 446.564 309.052 445.37 307.464 445.37C305.877 445.37 304.566 446.564 304.372 448.1H279.037V448.876H304.372C304.563 450.412 305.877 451.606 307.464 451.606C309.052 451.606 310.362 450.412 310.556 448.876H323.926V456.612H299.532C299.341 455.076 298.03 453.881 296.44 453.881C294.85 453.881 293.541 455.076 293.347 456.612H279.034V457.387H293.347C293.539 458.923 294.85 460.117 296.44 460.117C298.03 460.117 299.338 458.923 299.532 457.387H323.926V465.123H279.037V465.899H323.926V485.034H324.701V465.899H332.523V485.034H333.298V465.899H341.119V485.034H341.895V465.899H366.659V472.691C365.123 472.882 363.928 474.195 363.928 475.783C363.928 477.502 365.327 478.901 367.046 478.901C368.766 478.901 370.165 477.502 370.165 475.783C370.165 474.195 368.97 472.882 367.434 472.691V465.123H341.895V457.387H390.755V485.034H391.531V457.387H399.352V485.034H400.128V406.895H407.949V485.034H408.724V406.895H440.029V429.079C438.494 429.27 437.299 430.584 437.299 432.171C437.299 433.89 438.698 435.289 440.417 435.289C442.137 435.289 443.535 433.89 443.535 432.171C443.535 430.584 442.341 429.27 440.805 429.079V406.895H447.977V417.051C446.441 417.243 445.247 418.556 445.247 420.143C445.247 421.863 446.646 423.262 448.365 423.262C450.084 423.262 451.483 421.863 451.483 420.143C451.483 418.556 450.289 417.243 448.753 417.051V406.895H475.026V448.1H456.576V485.034H457.352V448.876H475.802V406.895H483.623V456.612H465.173V485.034H465.949V457.387H484.399V406.895H513.403V462.419C511.867 462.61 510.672 463.923 510.672 465.511C510.672 467.23 512.071 468.629 513.79 468.629C515.378 468.629 516.689 467.434 516.883 465.899H558.271V465.123H516.883C516.707 463.714 515.587 462.594 514.178 462.419V406.895H521.999V453.907C520.464 454.099 519.269 455.412 519.269 456.999C519.269 458.719 520.668 460.117 522.387 460.117C523.975 460.117 525.286 458.923 525.479 457.387H558.268V456.612H525.479C525.304 455.203 524.184 454.083 522.775 453.907V406.895H530.596V445.398C529.06 445.59 527.866 446.903 527.866 448.491C527.866 450.21 529.265 451.609 530.984 451.609C532.571 451.609 533.882 450.414 534.076 448.878H558.268V448.103H534.076C533.9 446.694 532.781 445.574 531.372 445.398V349.813H558.268V349.038H531.372V341.214H558.268V340.438H531.372V332.615H558.268V331.839H465.949V324.838H510.68C510.68 324.881 510.672 324.923 510.672 324.967C510.672 326.686 512.071 328.085 513.79 328.085C515.51 328.085 516.909 326.686 516.909 324.967C516.909 323.247 515.51 321.849 513.79 321.849C512.387 321.849 511.197 322.782 510.807 324.062H465.949V316.238H527.972C528.163 317.774 529.477 318.968 531.064 318.968C532.783 318.968 534.182 317.57 534.182 315.85C534.182 314.131 532.783 312.732 531.064 312.732C529.477 312.732 528.166 313.927 527.972 315.463H465.949V307.639H519.298C519.489 309.175 520.802 310.369 522.39 310.369C524.109 310.369 525.508 308.97 525.508 307.251C525.508 305.532 524.109 304.133 522.39 304.133C520.802 304.133 519.491 305.328 519.298 306.863H465.949V266.835C467.485 266.644 468.679 265.33 468.679 263.743C468.679 262.155 467.485 260.842 465.949 260.65V239.884H491.824V282.904H558.268V282.128H492.6V239.884H501.282V274.304H558.268V273.529H502.058V239.884H558.268V239.108H502.058V231.758H558.268V230.982H502.058V224.712H558.268L558.274 224.707ZM459.309 253.982C459.309 255.275 458.26 256.325 456.967 256.325C455.674 256.325 454.624 255.275 454.624 253.982C454.624 252.69 455.674 251.64 456.967 251.64C458.26 251.64 459.309 252.69 459.309 253.982ZM298.249 276.251C296.957 276.251 295.907 275.201 295.907 273.909C295.907 272.616 296.957 271.566 298.249 271.566C299.542 271.566 300.592 272.616 300.592 273.909C300.592 275.201 299.542 276.251 298.249 276.251ZM309.442 284.851C308.149 284.851 307.1 283.801 307.1 282.508C307.1 281.215 308.149 280.166 309.442 280.166C310.735 280.166 311.784 281.215 311.784 282.508C311.784 283.801 310.735 284.851 309.442 284.851ZM307.469 450.823C306.177 450.823 305.127 449.773 305.127 448.48C305.127 447.188 306.177 446.138 307.469 446.138C308.762 446.138 309.812 447.188 309.812 448.48C309.812 449.773 308.762 450.823 307.469 450.823ZM296.445 459.334C295.152 459.334 294.102 458.284 294.102 456.992C294.102 455.699 295.152 454.649 296.445 454.649C297.738 454.649 298.787 455.699 298.787 456.992C298.787 458.284 297.738 459.334 296.445 459.334ZM369.394 475.775C369.394 477.068 368.344 478.118 367.052 478.118C365.759 478.118 364.709 477.068 364.709 475.775C364.709 474.482 365.759 473.433 367.052 473.433C368.344 473.433 369.394 474.482 369.394 475.775ZM447.982 307.629V324.052H440.81V307.629H447.982ZM440.813 340.428V332.604H447.985V340.428H440.813ZM447.982 341.204V349.027H440.81V341.204H447.982ZM440.813 331.829V324.827H447.985V331.829H440.813ZM408.73 332.604H440.035V340.428H408.73V332.604ZM408.73 341.204H440.035V349.027H408.73V341.204ZM400.133 291.495H407.954V331.829H400.133V291.495ZM400.133 332.604H407.954V340.428H400.133V332.604ZM400.133 341.204H407.954V349.027H400.133V341.204ZM391.536 282.896H399.357V290.72H391.536V282.896ZM391.536 291.495H399.357V331.829H391.536V291.495ZM399.357 332.604V340.428H382.74V332.604H399.357ZM390.76 291.495V331.829H382.74V291.495H390.76ZM382.74 290.72V282.896H390.76V290.72H382.74ZM390.76 274.297V282.12H382.74V274.297H390.76ZM380.01 217.788C380.01 216.496 381.06 215.446 382.352 215.446C383.645 215.446 384.695 216.496 384.695 217.788C384.695 219.081 383.645 220.131 382.352 220.131C381.06 220.131 380.01 219.081 380.01 217.788ZM381.965 274.297V282.12H341.9V274.297H381.965ZM381.965 282.896V290.72H341.9V282.896H381.965ZM324.283 226.662C322.99 226.662 321.94 225.612 321.94 224.319C321.94 223.027 322.99 221.977 324.283 221.977C325.575 221.977 326.625 223.027 326.625 224.319C326.625 225.612 325.575 226.662 324.283 226.662ZM332.528 465.115H324.707V457.38H332.528V465.115ZM332.528 456.604H324.707V448.868H332.528V456.604ZM332.528 448.092H324.707V389.689H332.528V448.092ZM332.528 388.913H324.707V381.09H332.528V388.913ZM332.528 380.314H324.707V372.49H332.528V380.314ZM332.528 371.715H324.707V282.893H332.528V371.715ZM332.528 282.12H324.707V274.297H332.528V282.12ZM332.528 273.521H324.707V239.876H332.528V273.521ZM332.528 239.1H324.707V231.75H329.826C330.002 233.159 331.121 234.279 332.53 234.454V239.1H332.528ZM332.916 233.707C331.623 233.707 330.573 232.657 330.573 231.365C330.573 230.072 331.623 229.022 332.916 229.022C334.208 229.022 335.258 230.072 335.258 231.365C335.258 232.657 334.208 233.707 332.916 233.707ZM341.124 465.115H333.303V457.38H341.124V465.115ZM341.124 456.604H333.303V448.868H341.124V456.604ZM341.124 448.092H333.303V389.689H341.124V448.092ZM341.124 388.913H333.303V381.09H341.124V388.913ZM341.124 380.314H333.303V372.49H341.124V380.314ZM341.124 371.715H333.303V291.493H341.124V371.715ZM341.124 290.72H333.303V282.896H341.124V290.72ZM341.124 282.12H333.303V274.297H341.124V282.12ZM341.124 273.521H333.303V239.876H338.423C338.598 241.285 339.718 242.405 341.127 242.581V273.521H341.124ZM341.512 241.831C340.22 241.831 339.17 240.781 339.17 239.488C339.17 238.196 340.22 237.146 341.512 237.146C342.805 237.146 343.855 238.196 343.855 239.488C343.855 240.781 342.805 241.831 341.512 241.831ZM357.346 388.913H341.9V381.09H357.346V388.913ZM357.734 434.27C359.026 434.27 360.076 435.32 360.076 436.613C360.076 437.906 359.026 438.955 357.734 438.955C356.441 438.955 355.391 437.906 355.391 436.613C355.391 435.32 356.441 434.27 357.734 434.27ZM390.76 456.604H341.9V448.868H390.76V456.604ZM399.357 456.604H391.536V448.868H399.357V456.604ZM400.133 406.112H399.357V448.092H341.9V389.689H348.746V423.249C347.211 423.44 346.016 424.753 346.016 426.341C346.016 428.06 347.415 429.459 349.134 429.459C350.854 429.459 352.252 428.06 352.252 426.341C352.252 424.753 351.058 423.44 349.522 423.249V389.689H357.343V433.521C355.807 433.712 354.613 435.025 354.613 436.613C354.613 438.332 356.012 439.731 357.731 439.731C359.45 439.731 360.849 438.332 360.849 436.613C360.849 435.025 359.655 433.712 358.119 433.521V389.689H413.469C413.66 391.225 414.971 392.419 416.561 392.419C418.28 392.419 419.679 391.021 419.679 389.301C419.679 387.582 418.28 386.183 416.561 386.183C414.973 386.183 413.663 387.378 413.469 388.913H358.119V381.09H403.243C403.434 382.626 404.748 383.82 406.335 383.82C408.055 383.82 409.453 382.421 409.453 380.702C409.453 378.983 408.055 377.584 406.335 377.584C404.748 377.584 403.437 378.778 403.243 380.314H341.898V372.49H393.827C394.018 374.026 395.329 375.221 396.919 375.221C398.638 375.221 400.037 373.822 400.037 372.103C400.037 370.383 398.638 368.985 396.919 368.985C395.332 368.985 394.021 370.179 393.827 371.715H341.898V291.493H381.962V331.826H353.15C352.956 330.29 351.645 329.101 350.06 329.101C348.341 329.101 346.942 330.5 346.942 332.219C346.942 333.938 348.341 335.337 350.06 335.337C351.65 335.337 352.961 334.14 353.152 332.602H381.965V340.425H360.549C360.355 338.89 359.044 337.698 357.46 337.698C355.74 337.698 354.341 339.096 354.341 340.816C354.341 342.535 355.74 343.934 357.46 343.934C359.05 343.934 360.36 342.737 360.552 341.198H399.36V349.022H370.146C369.955 347.486 368.644 346.292 367.054 346.292C365.335 346.292 363.936 347.691 363.936 349.41C363.936 351.129 365.335 352.528 367.054 352.528C368.642 352.528 369.953 351.333 370.146 349.798H440.04V406.107H400.138L400.133 406.112ZM349.134 423.998C350.427 423.998 351.477 425.048 351.477 426.341C351.477 427.634 350.427 428.683 349.134 428.683C347.842 428.683 346.792 427.634 346.792 426.341C346.792 425.048 347.842 423.998 349.134 423.998ZM414.219 389.301C414.219 388.009 415.268 386.959 416.561 386.959C417.854 386.959 418.903 388.009 418.903 389.301C418.903 390.594 417.854 391.644 416.561 391.644C415.268 391.644 414.219 390.594 414.219 389.301ZM403.993 380.702C403.993 379.409 405.043 378.359 406.335 378.359C407.628 378.359 408.678 379.409 408.678 380.702C408.678 381.995 407.628 383.044 406.335 383.044C405.043 383.044 403.993 381.995 403.993 380.702ZM394.579 372.103C394.579 370.81 395.629 369.76 396.922 369.76C398.214 369.76 399.264 370.81 399.264 372.103C399.264 373.395 398.214 374.445 396.922 374.445C395.629 374.445 394.579 373.395 394.579 372.103ZM352.402 332.222C352.402 333.514 351.353 334.564 350.06 334.564C348.767 334.564 347.717 333.514 347.717 332.222C347.717 330.929 348.767 329.879 350.06 329.879C351.353 329.879 352.402 330.929 352.402 332.222ZM359.799 340.821C359.799 342.114 358.75 343.163 357.457 343.163C356.164 343.163 355.114 342.114 355.114 340.821C355.114 339.528 356.164 338.478 357.457 338.478C358.75 338.478 359.799 339.528 359.799 340.821ZM369.394 349.415C369.394 350.708 368.344 351.758 367.052 351.758C365.759 351.758 364.709 350.708 364.709 349.415C364.709 348.122 365.759 347.073 367.052 347.073C368.344 347.073 369.394 348.122 369.394 349.415ZM442.767 432.163C442.767 433.456 441.718 434.506 440.425 434.506C439.132 434.506 438.082 433.456 438.082 432.163C438.082 430.871 439.132 429.821 440.425 429.821C441.718 429.821 442.767 430.871 442.767 432.163ZM440.425 266.077C439.132 266.077 438.082 265.028 438.082 263.735C438.082 262.442 439.132 261.392 440.425 261.392C441.718 261.392 442.767 262.442 442.767 263.735C442.767 265.028 441.718 266.077 440.425 266.077ZM440.813 406.112V349.803H447.985V406.112H440.813ZM450.713 420.136C450.713 421.428 449.663 422.478 448.37 422.478C447.077 422.478 446.028 421.428 446.028 420.136C446.028 418.843 447.077 417.793 448.37 417.793C449.663 417.793 450.713 418.843 450.713 420.136ZM448.758 307.629H456.579V315.452H448.758V307.629ZM448.758 316.228H456.579V324.052H448.758V316.228ZM448.758 324.827H456.579V331.829H448.758V324.827ZM448.758 332.604H456.579V340.428H448.758V332.604ZM448.758 341.204H456.579V349.027H448.758V341.204ZM448.758 349.803H456.579V397.513H448.758V349.803ZM465.178 406.112H448.758V398.288H465.178V406.112ZM465.178 397.513H457.357V349.803H465.178V397.513ZM465.178 349.027H457.357V341.204H465.178V349.027ZM465.178 340.428H457.357V332.604H465.178V340.428ZM465.178 331.829H457.357V324.827H465.178V331.829ZM465.178 324.052H457.357V316.228H465.178V324.052ZM465.178 315.452H457.357V307.629H465.178V315.452ZM533.332 448.48C533.332 449.773 532.282 450.823 530.989 450.823C529.696 450.823 528.647 449.773 528.647 448.48C528.647 447.188 529.696 446.138 530.989 446.138C532.282 446.138 533.332 447.188 533.332 448.48ZM522.78 332.604H530.601V340.428H522.78V332.604ZM522.78 341.204H530.601V349.027H522.78V341.204ZM522.78 349.803H530.601V397.513H522.78V349.803ZM522.78 398.288H530.601V406.112H522.78V398.288ZM513.796 322.614C515.088 322.614 516.138 323.664 516.138 324.956C516.138 326.249 515.088 327.299 513.796 327.299C512.503 327.299 511.453 326.249 511.453 324.956C511.453 323.664 512.503 322.614 513.796 322.614ZM531.069 313.498C532.362 313.498 533.412 314.547 533.412 315.84C533.412 317.133 532.362 318.182 531.069 318.182C529.777 318.182 528.727 317.133 528.727 315.84C528.727 314.547 529.777 313.498 531.069 313.498ZM522.392 304.898C523.685 304.898 524.735 305.948 524.735 307.241C524.735 308.533 523.685 309.583 522.392 309.583C521.1 309.583 520.05 308.533 520.05 307.241C520.05 305.948 521.1 304.898 522.392 304.898ZM457.355 224.707H465.176V230.977H457.355V224.707ZM457.355 239.1V231.75H465.176V239.1H457.355ZM483.628 406.112H465.954V398.288H483.628V406.112ZM465.954 397.513V349.803H513.408V397.513H465.954ZM484.404 406.112V398.288H513.408V406.112H484.404ZM516.138 465.503C516.138 466.796 515.088 467.846 513.796 467.846C512.503 467.846 511.453 466.796 511.453 465.503C511.453 464.21 512.503 463.161 513.796 463.161C515.088 463.161 516.138 464.21 516.138 465.503ZM465.954 349.027V341.204H522.005V349.027H465.954ZM522.005 349.803V397.513H514.183V349.803H522.005ZM514.183 406.112V398.288H522.005V406.112H514.183ZM524.735 456.992C524.735 458.284 523.685 459.334 522.392 459.334C521.1 459.334 520.05 458.284 520.05 456.992C520.05 455.699 521.1 454.649 522.392 454.649C523.685 454.649 524.735 455.699 524.735 456.992ZM522.005 332.604V340.428H465.954V332.604H522.005ZM467.909 263.735C467.909 265.028 466.859 266.077 465.566 266.077C464.273 266.077 463.224 265.028 463.224 263.735C463.224 262.442 464.273 261.392 465.566 261.392C466.859 261.392 467.909 262.442 467.909 263.735ZM491.829 239.1H465.954V231.75H491.829V239.1ZM501.287 239.1H492.605V231.75H501.287V239.1ZM501.287 230.974H465.954V224.705H501.287V230.974Z" fill="#E7EAE9" fill-opacity="0.1"/>
</g>
</g>
<defs>
<linearGradient id="paint0_linear_291_1056" x1="279.5" y1="72.5" x2="279.5" y2="603" gradientUnits="userSpaceOnUse">
<stop/>
<stop offset="1" stop-color="#666666"/>
</linearGradient>
<clipPath id="clip0_291_1056">
<rect width="559.19" height="559.715" fill="white" transform="translate(-0.189941 -73.4373)"/>
</clipPath>
</defs>
</svg>
