<svg width="559" height="334" viewBox="0 0 559 334" fill="none" xmlns="http://www.w3.org/2000/svg">
<rect width="559" height="334" rx="10" fill="url(#paint0_linear_114_12)"/>
<mask id="mask0_114_12" style="mask-type:alpha" maskUnits="userSpaceOnUse" x="0" y="0" width="559" height="334">
<rect width="559" height="334" rx="10" fill="#D9D9D9" fill-opacity="0.69"/>
</mask>
<g mask="url(#mask0_114_12)">
<path d="M340.503 23.2075C344.062 23.2075 346.958 20.3121 346.958 16.7532C346.958 13.1942 344.062 10.2988 340.503 10.2988C336.944 10.2988 334.049 13.1942 334.049 16.7532C334.049 20.3121 336.944 23.2075 340.503 23.2075ZM340.503 11.9044C343.179 11.9044 345.352 14.0772 345.352 16.7532C345.352 19.4291 343.179 21.6019 340.503 21.6019C337.827 21.6019 335.655 19.4291 335.655 16.7532C335.655 14.0772 337.827 11.9044 340.503 11.9044Z" fill="white" fill-opacity="0.1"/>
<path d="M568 -43.8459V-45.4514H376.901V-83H375.296V-45.4514H359.106V-83H357.501V10.3577C354.322 10.7537 351.849 13.4725 351.849 16.7585C351.849 20.3175 354.745 23.2129 358.304 23.2129C361.863 23.2129 364.758 20.3175 364.758 16.7585C364.758 13.4725 362.285 10.7591 359.106 10.3577V-12.4412H375.296V30.5449C372.117 30.9409 369.644 33.6597 369.644 36.9457C369.644 40.2317 372.117 42.9505 375.296 43.3465V126.199H359.106V23.2182H357.501V126.199H341.312V23.2182H339.706V126.199H324.86V43.3465C328.039 42.9505 330.512 40.2317 330.512 36.9457C330.512 33.3867 327.616 30.4914 324.057 30.4914C320.498 30.4914 317.603 33.3867 317.603 36.9457C317.603 40.2317 320.075 42.9505 323.254 43.3465V177.897H258.454V-83H256.849V92.7976H240.659V-83H239.054V74.9974H222.864V-83H221.259V57.1971H204.657V-51.7666C207.836 -52.1626 210.309 -54.8814 210.309 -58.1674C210.309 -61.7264 207.414 -64.6217 203.855 -64.6217C200.296 -64.6217 197.4 -61.7264 197.4 -58.1674C197.4 -54.8814 199.873 -52.168 203.052 -51.7666V57.1971H120.12V-6.84851C123.299 -7.24454 125.771 -9.96328 125.771 -13.2493C125.771 -16.5354 123.299 -19.2541 120.12 -19.6501V-83H118.514V-19.6448C115.597 -19.2809 113.285 -16.9635 112.916 -14.0467H102.319V-23.664C105.498 -24.0601 107.971 -26.7788 107.971 -30.0648C107.971 -33.3509 105.498 -36.0643 102.319 -36.4657V-83H100.714V-36.4657C97.797 -36.1017 95.485 -33.7844 95.1157 -30.8676H84.5191V-38.2585C87.6659 -38.6867 90.0957 -41.384 90.0957 -44.6486C90.0957 -47.9133 87.6231 -50.6481 84.4441 -51.0494V-83H82.8386V-51.0441C79.9218 -50.6802 77.6098 -48.3628 77.2405 -45.4461H-10V-43.8405H77.2459C77.6152 -40.897 79.9646 -38.5689 82.9135 -38.2318V-30.8623H-10V-29.2567H82.9188V-14.0414H-10V-12.4358H82.9188V57.2078H36.1544C35.7583 54.0288 33.0449 51.5563 29.7536 51.5563C26.4622 51.5563 23.7541 54.0288 23.3527 57.2078H-10V58.8134H23.3581C23.7541 61.9924 26.4675 64.4649 29.7589 64.4649C33.0503 64.4649 35.7583 61.9924 36.1597 58.8134H82.9242V75.0081H59.3332C58.9372 71.8291 56.2238 69.3565 52.9324 69.3565C49.641 69.3565 46.933 71.8291 46.5316 75.0081H-10V76.6136H46.5263C46.9223 79.7926 49.6357 82.2652 52.9271 82.2652C56.2185 82.2652 58.9265 79.7926 59.3279 76.6136H82.9188V260.466H59.0442V177.913H-10V179.519H57.4387V262.071H82.9188V278.266H40.8908V195.703H-10V197.309H39.2852V279.872H82.9188V296.066H23.8558V213.503H-10V215.109H22.2503V297.672H82.9188V418.565H55.2444C54.8484 415.386 52.1296 412.913 48.8436 412.913C45.5576 412.913 42.8442 415.386 42.4428 418.565H-10V420.17H42.4428C42.8388 423.349 45.5576 425.822 48.8436 425.822C52.1296 425.822 54.843 423.349 55.2444 420.17H82.9188V436.183H32.4241C32.0281 433.004 29.3147 430.532 26.0233 430.532C22.7319 430.532 20.0239 433.004 19.6225 436.183H-10V437.789H19.6279C20.0239 440.968 22.7373 443.44 26.0287 443.44C29.3201 443.44 32.0281 440.968 32.4295 437.789H82.9242V453.801H-10V455.407H82.9188V495.016H84.5244V455.407H100.714V495.016H102.319V455.407H118.509V495.016H120.114V455.407H171.374V469.466C168.195 469.862 165.723 472.581 165.723 475.867C165.723 479.426 168.618 482.321 172.177 482.321C175.736 482.321 178.631 479.426 178.631 475.867C178.631 472.581 176.159 469.862 172.98 469.466V453.801H120.114V437.789H221.254V495.016H222.859V437.789H239.048V495.016H240.654V333.278H256.843V495.016H258.449V333.278H323.249V379.197C320.07 379.593 317.598 382.311 317.598 385.597C317.598 389.156 320.493 392.052 324.052 392.052C327.611 392.052 330.506 389.156 330.506 385.597C330.506 382.311 328.034 379.598 324.855 379.197V333.278H339.701V354.3C336.522 354.696 334.049 357.415 334.049 360.701C334.049 364.26 336.944 367.155 340.503 367.155C344.062 367.155 346.958 364.26 346.958 360.701C346.958 357.415 344.485 354.701 341.306 354.3V333.278H395.692V418.57H357.501V495.016H359.106V420.176H397.297V333.278H413.487V436.188H375.296V495.021H376.901V437.794H415.092V333.278H475.129V448.203C471.95 448.599 469.478 451.318 469.478 454.604C469.478 458.163 472.373 461.059 475.932 461.059C479.218 461.059 481.931 458.586 482.333 455.407H568.005V453.801H482.333C481.969 450.885 479.652 448.567 476.735 448.203V333.278H492.924V430.59C489.745 430.986 487.273 433.705 487.273 436.991C487.273 440.55 490.168 443.446 493.727 443.446C497.013 443.446 499.726 440.973 500.128 437.794H568V436.188H500.128C499.764 433.272 497.446 430.954 494.53 430.59V333.278H510.719V412.972C507.54 413.368 505.068 416.087 505.068 419.373C505.068 422.932 507.963 425.827 511.522 425.827C514.808 425.827 517.521 423.355 517.923 420.176H568V418.57H517.923C517.559 415.653 515.241 413.336 512.325 412.972V215.114H568V213.509H512.325V197.314H568V195.708H512.325V179.514H568V177.908H376.901V163.415H469.494C469.494 163.506 469.478 163.592 469.478 163.683C469.478 167.242 472.373 170.137 475.932 170.137C479.491 170.137 482.386 167.242 482.386 163.683C482.386 160.124 479.491 157.229 475.932 157.229C473.026 157.229 470.564 159.161 469.756 161.81H376.901V145.615H505.287C505.683 148.794 508.402 151.267 511.688 151.267C515.247 151.267 518.142 148.371 518.142 144.812C518.142 141.253 515.247 138.358 511.688 138.358C508.402 138.358 505.688 140.83 505.287 144.009H376.901V127.815H487.332C487.728 130.994 490.446 133.466 493.732 133.466C497.291 133.466 500.187 130.571 500.187 127.012C500.187 123.453 497.291 120.558 493.732 120.558C490.446 120.558 487.733 123.03 487.332 126.209H376.901V43.3572C380.08 42.9612 382.553 40.2424 382.553 36.9564C382.553 33.6704 380.08 30.957 376.901 30.5556V-12.4305H430.463V76.6136H568V75.0081H432.068V-12.4305H450.04V58.8187H568V57.2132H451.645V-12.4251H568V-14.0307H451.645V-29.246H568V-30.8516H451.645V-43.8298H568V-43.8459ZM363.147 16.7532C363.147 19.4291 360.974 21.6019 358.298 21.6019C355.622 21.6019 353.45 19.4291 353.45 16.7532C353.45 14.0772 355.622 11.9044 358.298 11.9044C360.974 11.9044 363.147 14.0772 363.147 16.7532ZM29.7589 62.8487C27.083 62.8487 24.9101 60.6758 24.9101 57.9999C24.9101 55.324 27.083 53.1511 29.7589 53.1511C32.4348 53.1511 34.6077 55.324 34.6077 57.9999C34.6077 60.6758 32.4348 62.8487 29.7589 62.8487ZM52.9271 80.6489C50.2511 80.6489 48.0783 78.4761 48.0783 75.8001C48.0783 73.1242 50.2511 70.9514 52.9271 70.9514C55.603 70.9514 57.7758 73.1242 57.7758 75.8001C57.7758 78.4761 55.603 80.6489 52.9271 80.6489ZM48.8436 424.206C46.1677 424.206 43.9948 422.033 43.9948 419.357C43.9948 416.681 46.1677 414.508 48.8436 414.508C51.5195 414.508 53.6924 416.681 53.6924 419.357C53.6924 422.033 51.5195 424.206 48.8436 424.206ZM26.0233 441.819C23.3474 441.819 21.1745 439.646 21.1745 436.97C21.1745 434.294 23.3474 432.121 26.0233 432.121C28.6992 432.121 30.8721 434.294 30.8721 436.97C30.8721 439.646 28.6992 441.819 26.0233 441.819ZM177.026 475.851C177.026 478.527 174.853 480.7 172.177 480.7C169.501 480.7 167.328 478.527 167.328 475.851C167.328 473.175 169.501 471.002 172.177 471.002C174.853 471.002 177.026 473.175 177.026 475.851ZM339.701 127.799V161.794H324.855V127.799H339.701ZM324.86 195.692V179.498H339.706V195.692H324.86ZM339.701 197.298V213.493H324.855V197.298H339.701ZM324.86 177.892V163.399H339.706V177.892H324.86ZM258.449 179.498H323.249V195.692H258.449V179.498ZM258.449 197.298H323.249V213.493H258.449V197.298ZM240.654 94.4032H256.843V177.892H240.654V94.4032ZM240.654 179.498H256.843V195.692H240.654V179.498ZM240.654 197.298H256.843V213.493H240.654V197.298ZM222.859 76.6029H239.048V92.7976H222.859V76.6029ZM222.859 94.4032H239.048V177.892H222.859V94.4032ZM239.048 179.498V195.692H204.652V179.498H239.048ZM221.254 94.4032V177.892H204.652V94.4032H221.254ZM204.652 92.7976V76.6029H221.254V92.7976H204.652ZM221.254 58.8027V74.9974H204.652V58.8027H221.254ZM199.001 -58.1621C199.001 -60.838 201.173 -63.0108 203.849 -63.0108C206.525 -63.0108 208.698 -60.838 208.698 -58.1621C208.698 -55.4861 206.525 -53.3133 203.849 -53.3133C201.173 -53.3133 199.001 -55.4861 199.001 -58.1621ZM203.047 58.8027V74.9974H120.114V58.8027H203.047ZM203.047 76.6029V92.7976H120.114V76.6029H203.047ZM83.6467 -39.7999C80.9708 -39.7999 78.7979 -41.9727 78.7979 -44.6486C78.7979 -47.3246 80.9708 -49.4974 83.6467 -49.4974C86.3226 -49.4974 88.4955 -47.3246 88.4955 -44.6486C88.4955 -41.9727 86.3226 -39.7999 83.6467 -39.7999ZM100.714 453.785H84.5244V437.773H100.714V453.785ZM100.714 436.167H84.5244V420.154H100.714V436.167ZM100.714 418.554H84.5244V297.661H100.714V418.554ZM100.714 296.056H84.5244V279.861H100.714V296.056ZM100.714 278.255H84.5244V262.061H100.714V278.255ZM100.714 260.455H84.5244V76.6029H100.714V260.455ZM100.714 74.9974H84.5244V58.8027H100.714V74.9974ZM100.714 57.1971H84.5244V-12.4465H100.714V57.1971ZM100.714 -14.0521H84.5244V-29.2674H95.1211C95.485 -26.3507 97.8023 -24.0333 100.719 -23.6694V-14.0521H100.714ZM101.517 -25.2161C98.8406 -25.2161 96.6678 -27.3889 96.6678 -30.0648C96.6678 -32.7408 98.8406 -34.9136 101.517 -34.9136C104.192 -34.9136 106.365 -32.7408 106.365 -30.0648C106.365 -27.3889 104.192 -25.2161 101.517 -25.2161ZM118.509 453.785H102.319V437.773H118.509V453.785ZM118.509 436.167H102.319V420.154H118.509V436.167ZM118.509 418.554H102.319V297.661H118.509V418.554ZM118.509 296.056H102.319V279.861H118.509V296.056ZM118.509 278.255H102.319V262.061H118.509V278.255ZM118.509 260.455H102.319V94.4032H118.509V260.455ZM118.509 92.7976H102.319V76.6029H118.509V92.7976ZM118.509 74.9974H102.319V58.8027H118.509V74.9974ZM118.509 57.1971H102.319V-12.4465H112.916C113.28 -9.52978 115.597 -7.21243 118.514 -6.84851V57.1971H118.509ZM119.311 -8.40054C116.636 -8.40054 114.463 -10.5734 114.463 -13.2493C114.463 -15.9252 116.636 -18.0981 119.311 -18.0981C121.987 -18.0981 124.16 -15.9252 124.16 -13.2493C124.16 -10.5734 121.987 -8.40054 119.311 -8.40054ZM152.086 296.056H120.114V279.861H152.086V296.056ZM152.889 389.938C155.565 389.938 157.738 392.111 157.738 394.787C157.738 397.462 155.565 399.635 152.889 399.635C150.213 399.635 148.04 397.462 148.04 394.787C148.04 392.111 150.213 389.938 152.889 389.938ZM221.254 436.167H120.114V420.154H221.254V436.167ZM239.048 436.167H222.859V420.154H239.048V436.167ZM240.654 331.651H239.048V418.549H120.114V297.656H134.286V367.123C131.107 367.519 128.634 370.238 128.634 373.524C128.634 377.083 131.53 379.978 135.089 379.978C138.648 379.978 141.543 377.083 141.543 373.524C141.543 370.238 139.07 367.524 135.891 367.123V297.656H152.081V388.386C148.902 388.782 146.429 391.501 146.429 394.787C146.429 398.346 149.325 401.241 152.884 401.241C156.443 401.241 159.338 398.346 159.338 394.787C159.338 391.501 156.865 388.787 153.686 388.386V297.656H268.259C268.655 300.835 271.368 303.307 274.66 303.307C278.219 303.307 281.114 300.412 281.114 296.853C281.114 293.294 278.219 290.399 274.66 290.399C271.374 290.399 268.66 292.871 268.259 296.05H153.686V279.856H247.092C247.488 283.035 250.207 285.507 253.493 285.507C257.052 285.507 259.947 282.612 259.947 279.053C259.947 275.494 257.052 272.598 253.493 272.598C250.207 272.598 247.494 275.071 247.092 278.25H120.109V262.055H227.601C227.997 265.234 230.71 267.707 234.002 267.707C237.561 267.707 240.456 264.811 240.456 261.252C240.456 257.694 237.561 254.798 234.002 254.798C230.716 254.798 228.002 257.271 227.601 260.45H120.109V94.3978H203.041V177.887H143.4C142.999 174.708 140.285 172.246 137.005 172.246C133.446 172.246 130.55 175.141 130.55 178.7C130.55 182.259 133.446 185.155 137.005 185.155C140.296 185.155 143.009 182.677 143.405 179.492H203.047V195.687H158.717C158.316 192.508 155.602 190.046 152.322 190.046C148.763 190.046 145.867 192.941 145.867 196.5C145.867 200.059 148.763 202.955 152.322 202.955C155.613 202.955 158.326 200.477 158.722 197.293H239.054V213.487H178.583C178.187 210.308 175.474 207.836 172.182 207.836C168.623 207.836 165.728 210.731 165.728 214.29C165.728 217.849 168.623 220.744 172.182 220.744C175.468 220.744 178.182 218.272 178.583 215.093H323.26V331.651H240.665H240.654ZM135.089 368.675C137.765 368.675 139.937 370.848 139.937 373.524C139.937 376.2 137.765 378.372 135.089 378.372C132.413 378.372 130.24 376.2 130.24 373.524C130.24 370.848 132.413 368.675 135.089 368.675ZM269.811 296.858C269.811 294.182 271.984 292.01 274.66 292.01C277.336 292.01 279.508 294.182 279.508 296.858C279.508 299.534 277.336 301.707 274.66 301.707C271.984 301.707 269.811 299.534 269.811 296.858ZM248.644 279.058C248.644 276.382 250.817 274.209 253.493 274.209C256.169 274.209 258.342 276.382 258.342 279.058C258.342 281.734 256.169 283.907 253.493 283.907C250.817 283.907 248.644 281.734 248.644 279.058ZM229.158 261.258C229.158 258.582 231.331 256.409 234.007 256.409C236.683 256.409 238.856 258.582 238.856 261.258C238.856 263.934 236.683 266.107 234.007 266.107C231.331 266.107 229.158 263.934 229.158 261.258ZM141.853 178.706C141.853 181.381 139.681 183.554 137.005 183.554C134.329 183.554 132.156 181.381 132.156 178.706C132.156 176.03 134.329 173.857 137.005 173.857C139.681 173.857 141.853 176.03 141.853 178.706ZM157.165 196.506C157.165 199.182 154.992 201.355 152.316 201.355C149.64 201.355 147.468 199.182 147.468 196.506C147.468 193.83 149.64 191.657 152.316 191.657C154.992 191.657 157.165 193.83 157.165 196.506ZM177.026 214.295C177.026 216.971 174.853 219.144 172.177 219.144C169.501 219.144 167.328 216.971 167.328 214.295C167.328 211.619 169.501 209.447 172.177 209.447C174.853 209.447 177.026 211.619 177.026 214.295ZM328.906 385.576C328.906 388.252 326.733 390.425 324.057 390.425C321.381 390.425 319.208 388.252 319.208 385.576C319.208 382.9 321.381 380.727 324.057 380.727C326.733 380.727 328.906 382.9 328.906 385.576ZM324.057 41.7891C321.381 41.7891 319.208 39.6163 319.208 36.9403C319.208 34.2644 321.381 32.0916 324.057 32.0916C326.733 32.0916 328.906 34.2644 328.906 36.9403C328.906 39.6163 326.733 41.7891 324.057 41.7891ZM324.86 331.651V215.093H339.706V331.651H324.86ZM345.352 360.679C345.352 363.355 343.179 365.528 340.503 365.528C337.828 365.528 335.655 363.355 335.655 360.679C335.655 358.003 337.828 355.83 340.503 355.83C343.179 355.83 345.352 358.003 345.352 360.679ZM341.306 127.799H357.496V143.993H341.306V127.799ZM341.306 145.599H357.496V161.794H341.306V145.599ZM341.306 163.399H357.496V177.892H341.306V163.399ZM341.306 179.498H357.496V195.692H341.306V179.498ZM341.306 197.298H357.496V213.493H341.306V197.298ZM341.306 215.098H357.496V313.856H341.306V215.098ZM375.296 331.651H341.306V315.456H375.296V331.651ZM375.296 313.856H359.106V215.098H375.296V313.856ZM375.296 213.493H359.106V197.298H375.296V213.493ZM375.296 195.692H359.106V179.498H375.296V195.692ZM375.296 177.892H359.106V163.399H375.296V177.892ZM375.296 161.794H359.106V145.599H375.296V161.794ZM375.296 143.993H359.106V127.799H375.296V143.993ZM516.371 419.357C516.371 422.033 514.198 424.206 511.522 424.206C508.846 424.206 506.673 422.033 506.673 419.357C506.673 416.681 508.846 414.508 511.522 414.508C514.198 414.508 516.371 416.681 516.371 419.357ZM494.53 179.498H510.719V195.692H494.53V179.498ZM494.53 197.298H510.719V213.493H494.53V197.298ZM494.53 215.098H510.719V313.856H494.53V215.098ZM494.53 315.461H510.719V331.656H494.53V315.461ZM475.932 158.818C478.608 158.818 480.781 160.991 480.781 163.667C480.781 166.343 478.608 168.516 475.932 168.516C473.256 168.516 471.083 166.343 471.083 163.667C471.083 160.991 473.256 158.818 475.932 158.818ZM511.688 139.947C514.364 139.947 516.537 142.12 516.537 144.796C516.537 147.472 514.364 149.645 511.688 149.645C509.012 149.645 506.839 147.472 506.839 144.796C506.839 142.12 509.012 139.947 511.688 139.947ZM493.727 122.147C496.403 122.147 498.576 124.32 498.576 126.996C498.576 129.672 496.403 131.845 493.727 131.845C491.051 131.845 488.878 129.672 488.878 126.996C488.878 124.32 491.051 122.147 493.727 122.147ZM359.101 -43.8459H375.29V-30.8676H359.101V-43.8459ZM359.101 -14.0521V-29.2674H375.29V-14.0521H359.101ZM413.487 331.651H376.901V315.456H413.487V331.651ZM376.901 313.856V215.098H475.129V313.856H376.901ZM415.092 331.651V315.456H475.129V331.651H415.092ZM480.781 454.588C480.781 457.264 478.608 459.437 475.932 459.437C473.256 459.437 471.083 457.264 471.083 454.588C471.083 451.912 473.256 449.739 475.932 449.739C478.608 449.739 480.781 451.912 480.781 454.588ZM376.901 213.493V197.298H492.924V213.493H376.901ZM492.924 215.098V313.856H476.735V215.098H492.924ZM476.735 331.651V315.456H492.924V331.651H476.735ZM498.576 436.97C498.576 439.646 496.403 441.819 493.727 441.819C491.051 441.819 488.878 439.646 488.878 436.97C488.878 434.294 491.051 432.121 493.727 432.121C496.403 432.121 498.576 434.294 498.576 436.97ZM492.924 179.498V195.692H376.901V179.498H492.924ZM380.947 36.9403C380.947 39.6163 378.775 41.7891 376.099 41.7891C373.423 41.7891 371.25 39.6163 371.25 36.9403C371.25 34.2644 373.423 32.0916 376.099 32.0916C378.775 32.0916 380.947 34.2644 380.947 36.9403ZM430.463 -14.0521H376.901V-29.2674H430.463V-14.0521ZM450.04 -14.0521H432.068V-29.2674H450.04V-14.0521ZM450.04 -30.8676H376.901V-43.8459H450.04V-30.8676Z" fill="white" fill-opacity="0.1"/>
</g>
<defs>
<linearGradient id="paint0_linear_114_12" x1="279.5" y1="72.5" x2="279.5" y2="603" gradientUnits="userSpaceOnUse">
<stop/>
<stop offset="1" stop-color="#666666"/>
</linearGradient>
</defs>
</svg>
