<svg width="64" height="64" viewBox="0 0 64 64" fill="none" xmlns="http://www.w3.org/2000/svg">
<path d="M32 4V18C32 19.5913 32.6321 21.1174 33.7574 22.2426C34.8826 23.3679 36.4087 24 38 24H52V54C52 55.5913 51.3679 57.1174 50.2426 58.2426C49.1174 59.3679 47.5913 60 46 60H18C16.4087 60 14.8826 59.3679 13.7574 58.2426C12.6321 57.1174 12 55.5913 12 54V10C12 8.4087 12.6321 6.88258 13.7574 5.75736C14.8826 4.63214 16.4087 4 18 4H32ZM36 5V18C36 18.5304 36.2107 19.0391 36.5858 19.4142C36.9609 19.7893 37.4696 20 38 20H51L36 5Z" fill="#8C1D40"/>
<path d="M32 52.4541C38.6355 52.4541 44.0147 47.075 44.0147 40.4395C44.0147 33.8039 38.6355 28.4248 32 28.4248C25.3645 28.4248 19.9854 33.8039 19.9854 40.4395C19.9854 47.075 25.3645 52.4541 32 52.4541Z" stroke="white"/>
<path d="M34.403 34.4322C34.403 35.0695 34.1499 35.6807 33.6992 36.1314C33.2486 36.582 32.6374 36.8352 32.0001 36.8352C31.3628 36.8352 30.7516 36.582 30.301 36.1314C29.8503 35.6807 29.5972 35.0695 29.5972 34.4322C29.5972 33.7949 29.8503 33.1837 30.301 32.7331C30.7516 32.2825 31.3628 32.0293 32.0001 32.0293C32.6374 32.0293 33.2486 32.2825 33.6992 32.7331C34.1499 33.1837 34.403 33.7949 34.403 34.4322Z" stroke="white"/>
<path d="M39.2086 38.0366C39.2086 38.0366 34.959 39.8388 31.9998 39.8388C29.0406 39.8388 24.791 38.0366 24.791 38.0366M31.9998 40.4396V42.1841M31.9998 42.1841C31.9995 42.8755 32.198 43.5524 32.5717 44.1341L35.6042 48.8498M31.9998 42.1841C32.0001 42.8755 31.8016 43.5524 31.4279 44.1341L28.3954 48.8498" stroke="white" stroke-linecap="round"/>
</svg>
