<?xml version="1.0" encoding="UTF-8" standalone="no"?>
<!DOCTYPE svg PUBLIC "-//W3C//DTD SVG 1.1//EN"
 "http://www.w3.org/Graphics/SVG/1.1/DTD/svg11.dtd">
<!-- Generated by graphviz version 12.1.1 (20240910.0053)
 -->
<!-- Title: INFRA Pages: 1 -->
<svg width="1390pt" height="404pt"
 viewBox="0.00 0.00 1390.27 404.00" xmlns="http://www.w3.org/2000/svg" xmlns:xlink="http://www.w3.org/1999/xlink">
<g id="graph0" class="graph" transform="scale(1 1) rotate(0) translate(4 400)">
<title>INFRA</title>
<polygon fill="white" stroke="none" points="-4,4 -4,-400 1386.27,-400 1386.27,4 -4,4"/>
<!-- PDF&#45;Accessability&#45;User&#45;Pool -->
<g id="node1" class="node">
<title>PDF&#45;Accessability&#45;User&#45;Pool</title>
<path fill="#e6e6e6" stroke="black" stroke-width="2" d="M636.75,-72C636.75,-72 464.27,-72 464.27,-72 458.27,-72 452.27,-66 452.27,-60 452.27,-60 452.27,-12 452.27,-12 452.27,-6 458.27,0 464.27,0 464.27,0 636.75,0 636.75,0 642.75,0 648.75,-6 648.75,-12 648.75,-12 648.75,-60 648.75,-60 648.75,-66 642.75,-72 636.75,-72"/>
<text text-anchor="middle" x="550.51" y="-40.2" font-family="Arial" font-size="14.00">PDF&#45;Accessability&#45;User&#45;Pool</text>
<text text-anchor="middle" x="550.51" y="-23.4" font-family="Arial" font-size="14.00">(AWS::Cognito::UserPool)</text>
</g>
<!-- PDF&#45;Accessability&#45;User&#45;Pool&#45;Client -->
<g id="node2" class="node">
<title>PDF&#45;Accessability&#45;User&#45;Pool&#45;Client</title>
<path fill="#e6e6e6" stroke="black" stroke-width="2" d="M357.98,-180C357.98,-180 145.04,-180 145.04,-180 139.04,-180 133.04,-174 133.04,-168 133.04,-168 133.04,-120 133.04,-120 133.04,-114 139.04,-108 145.04,-108 145.04,-108 357.98,-108 357.98,-108 363.98,-108 369.98,-114 369.98,-120 369.98,-120 369.98,-168 369.98,-168 369.98,-174 363.98,-180 357.98,-180"/>
<text text-anchor="middle" x="251.51" y="-148.2" font-family="Arial" font-size="14.00">PDF&#45;Accessability&#45;User&#45;Pool&#45;Client</text>
<text text-anchor="middle" x="251.51" y="-131.4" font-family="Arial" font-size="14.00">(AWS::Cognito::UserPoolClient)</text>
</g>
<!-- PDF&#45;Accessability&#45;User&#45;Pool&#45;Client&#45;&gt;PDF&#45;Accessability&#45;User&#45;Pool -->
<g id="edge1" class="edge">
<title>PDF&#45;Accessability&#45;User&#45;Pool&#45;Client&#45;&gt;PDF&#45;Accessability&#45;User&#45;Pool</title>
<path fill="none" stroke="black" d="M351.49,-107.56C380.3,-97.34 411.86,-86.15 441.2,-75.75"/>
<polygon fill="black" stroke="black" points="442.22,-79.11 450.47,-72.47 439.88,-72.51 442.22,-79.11"/>
</g>
<!-- PDF&#45;Accessability&#45;User&#45;Pool&#45;Domain -->
<g id="node3" class="node">
<title>PDF&#45;Accessability&#45;User&#45;Pool&#45;Domain</title>
<path fill="#e6e6e6" stroke="black" stroke-width="2" d="M663.21,-180C663.21,-180 437.82,-180 437.82,-180 431.82,-180 425.82,-174 425.82,-168 425.82,-168 425.82,-120 425.82,-120 425.82,-114 431.82,-108 437.82,-108 437.82,-108 663.21,-108 663.21,-108 669.21,-108 675.21,-114 675.21,-120 675.21,-120 675.21,-168 675.21,-168 675.21,-174 669.21,-180 663.21,-180"/>
<text text-anchor="middle" x="550.51" y="-148.2" font-family="Arial" font-size="14.00">PDF&#45;Accessability&#45;User&#45;Pool&#45;Domain</text>
<text text-anchor="middle" x="550.51" y="-131.4" font-family="Arial" font-size="14.00">(AWS::Cognito::UserPoolDomain)</text>
</g>
<!-- PDF&#45;Accessability&#45;User&#45;Pool&#45;Domain&#45;&gt;PDF&#45;Accessability&#45;User&#45;Pool -->
<g id="edge2" class="edge">
<title>PDF&#45;Accessability&#45;User&#45;Pool&#45;Domain&#45;&gt;PDF&#45;Accessability&#45;User&#45;Pool</title>
<path fill="none" stroke="black" d="M550.51,-107.7C550.51,-99.93 550.51,-91.57 550.51,-83.43"/>
<polygon fill="black" stroke="black" points="554.01,-83.66 550.51,-73.66 547.01,-83.66 554.01,-83.66"/>
</g>
<!-- PDFIdentityPool -->
<g id="node4" class="node">
<title>PDFIdentityPool</title>
<path fill="#e6e6e6" stroke="black" stroke-width="2" d="M196.61,-288C196.61,-288 26.42,-288 26.42,-288 20.42,-288 14.42,-282 14.42,-276 14.42,-276 14.42,-228 14.42,-228 14.42,-222 20.42,-216 26.42,-216 26.42,-216 196.61,-216 196.61,-216 202.61,-216 208.61,-222 208.61,-228 208.61,-228 208.61,-276 208.61,-276 208.61,-282 202.61,-288 196.61,-288"/>
<text text-anchor="middle" x="111.51" y="-256.2" font-family="Arial" font-size="14.00">PDFIdentityPool</text>
<text text-anchor="middle" x="111.51" y="-239.4" font-family="Arial" font-size="14.00">(AWS::Cognito::IdentityPool)</text>
</g>
<!-- PDFIdentityPool&#45;&gt;PDF&#45;Accessability&#45;User&#45;Pool -->
<g id="edge3" class="edge">
<title>PDFIdentityPool&#45;&gt;PDF&#45;Accessability&#45;User&#45;Pool</title>
<path fill="none" stroke="black" d="M103.8,-215.63C99.02,-183.37 98.06,-136.5 124.51,-108 166.24,-63.04 328.67,-46.55 440.45,-40.5"/>
<polygon fill="black" stroke="black" points="440.47,-44 450.27,-39.99 440.1,-37.01 440.47,-44"/>
</g>
<!-- PDFIdentityPool&#45;&gt;PDF&#45;Accessability&#45;User&#45;Pool&#45;Client -->
<g id="edge4" class="edge">
<title>PDFIdentityPool&#45;&gt;PDF&#45;Accessability&#45;User&#45;Pool&#45;Client</title>
<path fill="none" stroke="black" d="M158.13,-215.7C170.29,-206.5 183.52,-196.48 196.09,-186.97"/>
<polygon fill="black" stroke="black" points="198.03,-189.88 203.89,-181.06 193.81,-184.3 198.03,-189.88"/>
</g>
<!-- CognitoDefaultAuthenticatedRole -->
<g id="node5" class="node">
<title>CognitoDefaultAuthenticatedRole</title>
<path fill="#e6e6e6" stroke="black" stroke-width="2" d="M211.03,-396C211.03,-396 12,-396 12,-396 6,-396 0,-390 0,-384 0,-384 0,-336 0,-336 0,-330 6,-324 12,-324 12,-324 211.03,-324 211.03,-324 217.03,-324 223.03,-330 223.03,-336 223.03,-336 223.03,-384 223.03,-384 223.03,-390 217.03,-396 211.03,-396"/>
<text text-anchor="middle" x="111.51" y="-364.2" font-family="Arial" font-size="14.00">CognitoDefaultAuthenticatedRole</text>
<text text-anchor="middle" x="111.51" y="-347.4" font-family="Arial" font-size="14.00">(AWS::IAM::Role)</text>
</g>
<!-- CognitoDefaultAuthenticatedRole&#45;&gt;PDFIdentityPool -->
<g id="edge5" class="edge">
<title>CognitoDefaultAuthenticatedRole&#45;&gt;PDFIdentityPool</title>
<path fill="none" stroke="black" d="M111.51,-323.7C111.51,-315.93 111.51,-307.57 111.51,-299.43"/>
<polygon fill="black" stroke="black" points="115.01,-299.66 111.51,-289.66 108.01,-299.66 115.01,-299.66"/>
</g>
<!-- ImportedBucket -->
<g id="node6" class="node">
<title>ImportedBucket</title>
<path fill="#fff5cd" stroke="black" stroke-width="2" d="M485.86,-389.45C485.86,-393.07 456.12,-396 419.51,-396 382.9,-396 353.17,-393.07 353.17,-389.45 353.17,-389.45 353.17,-330.55 353.17,-330.55 353.17,-326.93 382.9,-324 419.51,-324 456.12,-324 485.86,-326.93 485.86,-330.55 485.86,-330.55 485.86,-389.45 485.86,-389.45"/>
<path fill="none" stroke="black" stroke-width="2" d="M485.86,-389.45C485.86,-385.84 456.12,-382.91 419.51,-382.91 382.9,-382.91 353.17,-385.84 353.17,-389.45"/>
<text text-anchor="middle" x="419.51" y="-364.2" font-family="Arial" font-size="14.00">ImportedBucket</text>
<text text-anchor="middle" x="419.51" y="-347.4" font-family="Arial" font-size="14.00">(AWS::S3::Bucket)</text>
</g>
<!-- GitHubToken -->
<g id="node7" class="node">
<title>GitHubToken</title>
<path fill="#e6e6e6" stroke="black" stroke-width="2" d="M779.49,-288C779.49,-288 587.54,-288 587.54,-288 581.54,-288 575.54,-282 575.54,-276 575.54,-276 575.54,-228 575.54,-228 575.54,-222 581.54,-216 587.54,-216 587.54,-216 779.49,-216 779.49,-216 785.49,-216 791.49,-222 791.49,-228 791.49,-228 791.49,-276 791.49,-276 791.49,-282 785.49,-288 779.49,-288"/>
<text text-anchor="middle" x="683.51" y="-256.2" font-family="Arial" font-size="14.00">GitHubToken</text>
<text text-anchor="middle" x="683.51" y="-239.4" font-family="Arial" font-size="14.00">(AWS::SecretsManager::Secret)</text>
</g>
<!-- pdfui -->
<g id="node8" class="node">
<title>pdfui</title>
<path fill="#b7e0ff" stroke="black" stroke-width="2" d="M743.3,-396C743.3,-396 623.72,-396 623.72,-396 617.72,-396 611.72,-390 611.72,-384 611.72,-384 611.72,-336 611.72,-336 611.72,-330 617.72,-324 623.72,-324 623.72,-324 743.3,-324 743.3,-324 749.3,-324 755.3,-330 755.3,-336 755.3,-336 755.3,-384 755.3,-384 755.3,-390 749.3,-396 743.3,-396"/>
<text text-anchor="middle" x="683.51" y="-364.2" font-family="Arial" font-size="14.00">pdfui</text>
<text text-anchor="middle" x="683.51" y="-347.4" font-family="Arial" font-size="14.00">(AWS::Amplify::App)</text>
</g>
<!-- pdfui&#45;&gt;GitHubToken -->
<g id="edge6" class="edge">
<title>pdfui&#45;&gt;GitHubToken</title>
<path fill="none" stroke="black" d="M683.51,-323.7C683.51,-315.93 683.51,-307.57 683.51,-299.43"/>
<polygon fill="black" stroke="black" points="687.01,-299.66 683.51,-289.66 680.01,-299.66 687.01,-299.66"/>
</g>
<!-- PostConfirmationLambda -->
<g id="node9" class="node">
<title>PostConfirmationLambda</title>
<path fill="#b7e0ff" stroke="black" stroke-width="2" d="M938.04,-396C938.04,-396 784.98,-396 784.98,-396 778.98,-396 772.98,-390 772.98,-384 772.98,-384 772.98,-336 772.98,-336 772.98,-330 778.98,-324 784.98,-324 784.98,-324 938.04,-324 938.04,-324 944.04,-324 950.04,-330 950.04,-336 950.04,-336 950.04,-384 950.04,-384 950.04,-390 944.04,-396 938.04,-396"/>
<text text-anchor="middle" x="861.51" y="-364.2" font-family="Arial" font-size="14.00">PostConfirmationLambda</text>
<text text-anchor="middle" x="861.51" y="-347.4" font-family="Arial" font-size="14.00">(AWS::Lambda::Function)</text>
</g>
<!-- UpdateAttributesFn -->
<g id="node10" class="node">
<title>UpdateAttributesFn</title>
<path fill="#b7e0ff" stroke="black" stroke-width="2" d="M1133.04,-396C1133.04,-396 979.98,-396 979.98,-396 973.98,-396 967.98,-390 967.98,-384 967.98,-384 967.98,-336 967.98,-336 967.98,-330 973.98,-324 979.98,-324 979.98,-324 1133.04,-324 1133.04,-324 1139.04,-324 1145.04,-330 1145.04,-336 1145.04,-336 1145.04,-384 1145.04,-384 1145.04,-390 1139.04,-396 1133.04,-396"/>
<text text-anchor="middle" x="1056.51" y="-364.2" font-family="Arial" font-size="14.00">UpdateAttributesFn</text>
<text text-anchor="middle" x="1056.51" y="-347.4" font-family="Arial" font-size="14.00">(AWS::Lambda::Function)</text>
</g>
<!-- Default_Group -->
<g id="node11" class="node">
<title>Default_Group</title>
<path fill="#e6e6e6" stroke="black" stroke-width="2" d="M898.27,-180C898.27,-180 704.75,-180 704.75,-180 698.75,-180 692.75,-174 692.75,-168 692.75,-168 692.75,-120 692.75,-120 692.75,-114 698.75,-108 704.75,-108 704.75,-108 898.27,-108 898.27,-108 904.27,-108 910.27,-114 910.27,-120 910.27,-120 910.27,-168 910.27,-168 910.27,-174 904.27,-180 898.27,-180"/>
<text text-anchor="middle" x="801.51" y="-148.2" font-family="Arial" font-size="14.00">Default_Group</text>
<text text-anchor="middle" x="801.51" y="-131.4" font-family="Arial" font-size="14.00">(AWS::Cognito::UserPoolGroup)</text>
</g>
<!-- Default_Group&#45;&gt;PDF&#45;Accessability&#45;User&#45;Pool -->
<g id="edge7" class="edge">
<title>Default_Group&#45;&gt;PDF&#45;Accessability&#45;User&#45;Pool</title>
<path fill="none" stroke="black" d="M717.58,-107.56C694.25,-97.7 668.74,-86.93 644.85,-76.84"/>
<polygon fill="black" stroke="black" points="646.33,-73.67 635.76,-73 643.61,-80.11 646.33,-73.67"/>
</g>
<!-- AmazonUsersGroup -->
<g id="node12" class="node">
<title>AmazonUsersGroup</title>
<path fill="#e6e6e6" stroke="black" stroke-width="2" d="M1134.27,-180C1134.27,-180 940.75,-180 940.75,-180 934.75,-180 928.75,-174 928.75,-168 928.75,-168 928.75,-120 928.75,-120 928.75,-114 934.75,-108 940.75,-108 940.75,-108 1134.27,-108 1134.27,-108 1140.27,-108 1146.27,-114 1146.27,-120 1146.27,-120 1146.27,-168 1146.27,-168 1146.27,-174 1140.27,-180 1134.27,-180"/>
<text text-anchor="middle" x="1037.51" y="-148.2" font-family="Arial" font-size="14.00">AmazonUsersGroup</text>
<text text-anchor="middle" x="1037.51" y="-131.4" font-family="Arial" font-size="14.00">(AWS::Cognito::UserPoolGroup)</text>
</g>
<!-- AmazonUsersGroup&#45;&gt;PDF&#45;Accessability&#45;User&#45;Pool -->
<g id="edge8" class="edge">
<title>AmazonUsersGroup&#45;&gt;PDF&#45;Accessability&#45;User&#45;Pool</title>
<path fill="none" stroke="black" d="M928.32,-110.2C925.36,-109.44 922.42,-108.71 919.51,-108 833,-86.9 733.85,-68.12 660.12,-55.18"/>
<polygon fill="black" stroke="black" points="660.92,-51.76 650.46,-53.49 659.71,-58.66 660.92,-51.76"/>
</g>
<!-- AdminUsersGroup -->
<g id="node13" class="node">
<title>AdminUsersGroup</title>
<path fill="#e6e6e6" stroke="black" stroke-width="2" d="M1370.27,-180C1370.27,-180 1176.75,-180 1176.75,-180 1170.75,-180 1164.75,-174 1164.75,-168 1164.75,-168 1164.75,-120 1164.75,-120 1164.75,-114 1170.75,-108 1176.75,-108 1176.75,-108 1370.27,-108 1370.27,-108 1376.27,-108 1382.27,-114 1382.27,-120 1382.27,-120 1382.27,-168 1382.27,-168 1382.27,-174 1376.27,-180 1370.27,-180"/>
<text text-anchor="middle" x="1273.51" y="-148.2" font-family="Arial" font-size="14.00">AdminUsersGroup</text>
<text text-anchor="middle" x="1273.51" y="-131.4" font-family="Arial" font-size="14.00">(AWS::Cognito::UserPoolGroup)</text>
</g>
<!-- AdminUsersGroup&#45;&gt;PDF&#45;Accessability&#45;User&#45;Pool -->
<g id="edge9" class="edge">
<title>AdminUsersGroup&#45;&gt;PDF&#45;Accessability&#45;User&#45;Pool</title>
<path fill="none" stroke="black" d="M1164.39,-109.92C1161.41,-109.24 1158.44,-108.6 1155.51,-108 984.36,-72.85 782.13,-53.49 660.23,-44.19"/>
<polygon fill="black" stroke="black" points="660.79,-40.72 650.56,-43.46 660.27,-47.7 660.79,-40.72"/>
</g>
<!-- MyManagedLoginBranding -->
<g id="node14" class="node">
<title>MyManagedLoginBranding</title>
<path fill="#e6e6e6" stroke="black" stroke-width="2" d="M545.15,-288C545.15,-288 241.87,-288 241.87,-288 235.87,-288 229.87,-282 229.87,-276 229.87,-276 229.87,-228 229.87,-228 229.87,-222 235.87,-216 241.87,-216 241.87,-216 545.15,-216 545.15,-216 551.15,-216 557.15,-222 557.15,-228 557.15,-228 557.15,-276 557.15,-276 557.15,-282 551.15,-288 545.15,-288"/>
<text text-anchor="middle" x="393.51" y="-256.2" font-family="Arial" font-size="14.00">MyManagedLoginBranding</text>
<text text-anchor="middle" x="393.51" y="-239.4" font-family="Arial" font-size="14.00">(AWS::Cognito::UserPoolManagedLoginBranding)</text>
</g>
<!-- MyManagedLoginBranding&#45;&gt;PDF&#45;Accessability&#45;User&#45;Pool -->
<g id="edge10" class="edge">
<title>MyManagedLoginBranding&#45;&gt;PDF&#45;Accessability&#45;User&#45;Pool</title>
<path fill="none" stroke="black" d="M390.81,-215.68C390.25,-184.54 394.04,-139.38 416.51,-108 424.68,-96.6 435.25,-86.87 446.86,-78.61"/>
<polygon fill="black" stroke="black" points="448.72,-81.58 455.12,-73.13 444.85,-75.74 448.72,-81.58"/>
</g>
<!-- MyManagedLoginBranding&#45;&gt;PDF&#45;Accessability&#45;User&#45;Pool&#45;Client -->
<g id="edge11" class="edge">
<title>MyManagedLoginBranding&#45;&gt;PDF&#45;Accessability&#45;User&#45;Pool&#45;Client</title>
<path fill="none" stroke="black" d="M346.23,-215.7C333.89,-206.5 320.48,-196.48 307.73,-186.97"/>
<polygon fill="black" stroke="black" points="309.91,-184.22 299.8,-181.05 305.72,-189.83 309.91,-184.22"/>
</g>
</g>
</svg>
